<?xml version="1.0" encoding="utf-8"?>
<!-- Generator: Adobe Illustrator 25.4.1, SVG Export Plug-In . SVG Version: 6.00 Build 0)  -->
<svg version="1.1" id="레이어_1" xmlns="http://www.w3.org/2000/svg" xmlns:xlink="http://www.w3.org/1999/xlink" x="0px"
	 y="0px" width="360px" height="640px" viewBox="0 0 360 640" style="enable-background:new 0 0 360 640;" xml:space="preserve">
<style type="text/css">
	
		.st0{clip-path:url(#SVGID_00000147180943498460136990000017495849075953893789_);fill:url(#SVGID_00000161601835462891524120000015631698046955092410_);stroke:#534741;stroke-width:1.5324;stroke-linecap:round;stroke-linejoin:round;stroke-miterlimit:10;}
	.st1{clip-path:url(#SVGID_00000171713715087631542430000007868921889439923342_);}
	
		.st2{clip-path:url(#SVGID_00000017485321827099424870000009377431407518241673_);fill:url(#SVGID_00000135685218258286800560000001990324516318090884_);}
	
		.st3{clip-path:url(#SVGID_00000149383220954369399510000015350336030489844117_);fill:#B2B2B2;stroke:#534741;stroke-width:1.5324;stroke-linecap:round;stroke-linejoin:round;stroke-miterlimit:10;}
	
		.st4{clip-path:url(#SVGID_00000009580682853022169340000003445578343622792089_);fill:#F1F1F1;stroke:#534741;stroke-width:1.5324;stroke-linecap:round;stroke-linejoin:round;stroke-miterlimit:10;}
	
		.st5{clip-path:url(#SVGID_00000073718210698855076580000012544173364228739207_);fill:#E5E5E5;stroke:#534741;stroke-width:1.5324;stroke-linecap:round;stroke-linejoin:round;stroke-miterlimit:10;}
	
		.st6{clip-path:url(#SVGID_00000045612635429129391290000007883363881501077129_);fill:#B2B2B2;stroke:#534741;stroke-width:1.5324;stroke-linecap:round;stroke-linejoin:round;stroke-miterlimit:10;}
	
		.st7{clip-path:url(#SVGID_00000045588915340007834100000010314426454893101973_);fill:#757575;stroke:#534741;stroke-width:1.5324;stroke-linecap:round;stroke-linejoin:round;stroke-miterlimit:10;}
	.st8{clip-path:url(#SVGID_00000148635689130217534310000009578876082729046179_);}
	.st9{fill:#F1E7DD;stroke:#534741;stroke-width:1.5324;stroke-linecap:round;stroke-linejoin:round;stroke-miterlimit:10;}
	.st10{fill:#0073AE;stroke:#534741;stroke-width:1.5324;stroke-linecap:round;stroke-linejoin:round;stroke-miterlimit:10;}
	.st11{fill:#0082B6;}
	.st12{fill:#006187;stroke:#534741;stroke-width:1.5324;stroke-linecap:round;stroke-linejoin:round;stroke-miterlimit:10;}
	.st13{fill:none;stroke:#534741;stroke-width:1.5324;stroke-linecap:round;stroke-linejoin:round;stroke-miterlimit:10;}
	
		.st14{opacity:0.2;stroke:#000000;stroke-width:1.5324;stroke-linecap:round;stroke-linejoin:round;stroke-miterlimit:10;enable-background:new    ;}
	.st15{fill:#FFFFFF;stroke:#534741;stroke-width:1.5324;stroke-linecap:round;stroke-linejoin:round;stroke-miterlimit:10;}
	.st16{fill:#F4EFE7;}
	.st17{fill:#FDBD0C;stroke:#534741;stroke-width:1.5324;stroke-linecap:round;stroke-linejoin:round;stroke-miterlimit:10;}
	.st18{fill:#FDA610;}
	.st19{fill:#534741;}
	.st20{fill:#FFFFFF;}
	.st21{fill:#F55934;}
	.st22{fill:#005B1D;stroke:#534741;stroke-width:1.5324;stroke-linecap:round;stroke-linejoin:round;stroke-miterlimit:10;}
	.st23{opacity:0.1;fill:#FFFFFF;enable-background:new    ;}
	.st24{fill:#F1F6EE;stroke:#534741;stroke-width:1.5324;stroke-linecap:round;stroke-linejoin:round;stroke-miterlimit:10;}
	.st25{clip-path:url(#SVGID_00000156557665992565046350000017732482089945762216_);fill:#FFFFFF;}
	.st26{clip-path:url(#SVGID_00000154413932900757932840000011519323133169343423_);fill:#FFFFFF;}
	.st27{clip-path:url(#SVGID_00000131351400078306666050000002959602935185975182_);}
	.st28{fill:#FDBD0C;}
</style>
<g>
	<g>
		<g>
			<g>
				<defs>
					<rect id="SVGID_1_" width="360" height="640"/>
				</defs>
				<clipPath id="SVGID_00000101063885041625352050000017957333071971075724_">
					<use xlink:href="#SVGID_1_"  style="overflow:visible;"/>
				</clipPath>
				
					<linearGradient id="SVGID_00000138537884320385115560000006769471798317293475_" gradientUnits="userSpaceOnUse" x1="173.9415" y1="-557.3495" x2="69.9857" y2="-46.3061" gradientTransform="matrix(1 0 0 -1 0 204)">
					<stop  offset="2.141721e-03" style="stop-color:#B2B2B2"/>
					<stop  offset="1" style="stop-color:#FFFFFF"/>
				</linearGradient>
				
					<rect x="-260.3" y="-15.7" style="clip-path:url(#SVGID_00000101063885041625352050000017957333071971075724_);fill:url(#SVGID_00000138537884320385115560000006769471798317293475_);stroke:#534741;stroke-width:1.5324;stroke-linecap:round;stroke-linejoin:round;stroke-miterlimit:10;" width="676.7" height="611.3"/>
			</g>
		</g>
	</g>
	<g>
		<g>
			<g>
				<defs>
					<rect id="SVGID_00000101807882081143523440000013897227934932595850_" width="360" height="640"/>
				</defs>
				<clipPath id="SVGID_00000150819459377707021210000000552552652781806006_">
					<use xlink:href="#SVGID_00000101807882081143523440000013897227934932595850_"  style="overflow:visible;"/>
				</clipPath>
				<g style="clip-path:url(#SVGID_00000150819459377707021210000000552552652781806006_);">
					<g>
						<g>
							<g>
								<defs>
									<path id="SVGID_00000132066700852960954380000007703843048958005647_" d="M296.5,389.7c0,4.1-3.2,7.4-7.3,7.6l-551.1,21.2
										c-4.3,0.2-7.9-3.3-7.9-7.6V117.6c0-5,4.8-8.7,9.7-7.3L291,267.6c3.3,0.9,5.5,3.9,5.5,7.3V389.7z"/>
								</defs>
								<clipPath id="SVGID_00000182515533188277585430000003890538160179354513_">
									<use xlink:href="#SVGID_00000132066700852960954380000007703843048958005647_"  style="overflow:visible;"/>
								</clipPath>
								
									<linearGradient id="SVGID_00000015327521915835848790000001975393826717272501_" gradientUnits="userSpaceOnUse" x1="12.45" y1="532.1153" x2="12.45" y2="221.3173" gradientTransform="matrix(1 0 0 -1 0 642)">
									<stop  offset="2.141721e-03" style="stop-color:#00B7FD"/>
									<stop  offset="1" style="stop-color:#BEDDDA"/>
								</linearGradient>
								
									<path style="clip-path:url(#SVGID_00000182515533188277585430000003890538160179354513_);fill:url(#SVGID_00000015327521915835848790000001975393826717272501_);" d="
									M-261.9,418.4l551.1-21.2c4-0.1,5.5-5,5.5-9.1V284.2c0-3.4,0-7.7-3.7-8.4l-551.1-157.3c-4.9-9.6-9.7-5.9-9.7-0.9v293.2
									C-269.8,415.1-266.2,418.6-261.9,418.4z"/>
							</g>
						</g>
					</g>
					<g>
						<g>
							<g>
								<defs>
									<path id="SVGID_00000129918324538798598380000002893897840656585344_" d="M296.5,389.7c0,4.1-3.2,7.4-7.3,7.6l-551.1,21.2
										c-4.3,0.2-7.9-3.3-7.9-7.6V117.6c0-5,4.8-8.7,9.7-7.3L291,267.6c3.3,0.9,5.5,3.9,5.5,7.3V389.7z"/>
								</defs>
								<clipPath id="SVGID_00000105426065252255922090000009181458218704592804_">
									<use xlink:href="#SVGID_00000129918324538798598380000002893897840656585344_"  style="overflow:visible;"/>
								</clipPath>
							</g>
						</g>
					</g>
				</g>
			</g>
		</g>
	</g>
	<g>
		<g>
			<g>
				<defs>
					<rect id="SVGID_00000181076332856792797910000013600175843369678490_" width="360" height="640"/>
				</defs>
				<clipPath id="SVGID_00000085944417419580395400000002941040747889188746_">
					<use xlink:href="#SVGID_00000181076332856792797910000013600175843369678490_"  style="overflow:visible;"/>
				</clipPath>
				
					<path style="clip-path:url(#SVGID_00000085944417419580395400000002941040747889188746_);fill:#B2B2B2;stroke:#534741;stroke-width:1.5324;stroke-linecap:round;stroke-linejoin:round;stroke-miterlimit:10;" d="
					M294.5,260.1L-259.6,99.2c-9.4-2.7-18.7,4.3-18.7,14v299.7c0,8.3,6.9,14.9,15.2,22.4L291,413.4c7.8-8.1,14-14.5,14-22.4V274.1
					C305,267.6,300.7,261.9,294.5,260.1z M294.7,388.1c0,4.1-1.5,9-5.5,9.1l-551.1,21.2c-4.3,0.2-7.9-3.3-7.9-7.6V117.6
					c0-5,4.8-8.7,9.7,0.9L291,275.8c3.7,0.7,3.7,5,3.7,8.4V388.1z"/>
			</g>
		</g>
	</g>
	<g>
		<g>
			<g>
				<defs>
					<rect id="SVGID_00000092417465915233707400000002780802033167012273_" width="360" height="640"/>
				</defs>
				<clipPath id="SVGID_00000183965689094731669150000015657420968428716702_">
					<use xlink:href="#SVGID_00000092417465915233707400000002780802033167012273_"  style="overflow:visible;"/>
				</clipPath>
				
					<path style="clip-path:url(#SVGID_00000183965689094731669150000015657420968428716702_);fill:#F1F1F1;stroke:#534741;stroke-width:1.5324;stroke-linecap:round;stroke-linejoin:round;stroke-miterlimit:10;" d="
					M297.3,257.8l-554-160.9c-9.4-2.7-18.7,4.3-18.7,14v299.7c0,8.3,6.9,14.9,15.2,20.5l554.1-21.9c7.8-6.2,14-12.6,14-20.5V271.8
					C307.9,265.3,303.6,259.6,297.3,257.8z M299.3,387.4c0,4.1-3.2,7.4-7.3,7.6l-551,21.1c-4.3,0.2-7.9-3.3-7.9-7.6V115.3
					c0-5,4.8-8.7,9.7-1.9l551.1,157.3c5.5,1.6,5.5,9.4,5.5,12.8v103.9H299.3z"/>
			</g>
		</g>
	</g>
	<g>
		<g>
			<g>
				<defs>
					<rect id="SVGID_00000011747881338803474540000008083716995439430568_" width="360" height="640"/>
				</defs>
				<clipPath id="SVGID_00000098208835091803339330000015572074663537977277_">
					<use xlink:href="#SVGID_00000011747881338803474540000008083716995439430568_"  style="overflow:visible;"/>
				</clipPath>
				
					<polygon style="clip-path:url(#SVGID_00000098208835091803339330000015572074663537977277_);fill:#E5E5E5;stroke:#534741;stroke-width:1.5324;stroke-linecap:round;stroke-linejoin:round;stroke-miterlimit:10;" points="
					-129.7,594.5 332.3,499.9 421.6,481.5 421.6,604.8 				"/>
			</g>
		</g>
	</g>
	<g>
		<g>
			<g>
				<defs>
					<rect id="SVGID_00000163776984099401401660000010103208722046069419_" width="360" height="640"/>
				</defs>
				<clipPath id="SVGID_00000116944594031433110240000015363298462397887141_">
					<use xlink:href="#SVGID_00000163776984099401401660000010103208722046069419_"  style="overflow:visible;"/>
				</clipPath>
				
					<polygon style="clip-path:url(#SVGID_00000116944594031433110240000015363298462397887141_);fill:#B2B2B2;stroke:#534741;stroke-width:1.5324;stroke-linecap:round;stroke-linejoin:round;stroke-miterlimit:10;" points="
					-112.3,594.6 335.2,503 421.6,485.2 421.6,604.5 				"/>
			</g>
		</g>
	</g>
	<g>
		<g>
			<g>
				<defs>
					<rect id="SVGID_00000088099227774546671650000002188452088968851862_" width="360" height="640"/>
				</defs>
				<clipPath id="SVGID_00000177478384736955496220000011246591748890988947_">
					<use xlink:href="#SVGID_00000088099227774546671650000002188452088968851862_"  style="overflow:visible;"/>
				</clipPath>
				
					<polygon style="clip-path:url(#SVGID_00000177478384736955496220000011246591748890988947_);fill:#757575;stroke:#534741;stroke-width:1.5324;stroke-linecap:round;stroke-linejoin:round;stroke-miterlimit:10;" points="
					-65,600.1 335,518.2 412.2,502.2 412.2,657 -17.6,648.9 				"/>
			</g>
		</g>
	</g>
	<g>
		<g>
			<g>
				<defs>
					<rect id="SVGID_00000183969948325679847640000006899545833920274568_" width="360" height="640"/>
				</defs>
				<clipPath id="SVGID_00000008838416709887111760000004566235073097583752_">
					<use xlink:href="#SVGID_00000183969948325679847640000006899545833920274568_"  style="overflow:visible;"/>
				</clipPath>
				<g style="clip-path:url(#SVGID_00000008838416709887111760000004566235073097583752_);">
					<path class="st9" d="M141.3,404.7L141.3,404.7c-29.5,0-33.1-3-34.2-3.9c-1.9-1.6-3.1-3.7-3.3-6c-0.4-4,2.1-7.2,2.6-7.9
						c0.3-0.3,0.5-0.6,0.9-0.8l26.7-19.6c2.2-1.6,5.3-1.1,6.9,1.1c1.6,2.2,1.1,5.3-1.1,6.9l-27.6,20.2c0.3,0.1,2.2-1.6,2.2-1.6
						c5.1,0.9,17.3,1.8,27,1.8c2.7,0,4.9,2.2,4.9,4.9C146.2,402.5,144,404.7,141.3,404.7z"/>
					<path class="st10" d="M170.6,458.8l-71.9,12.4c-4.7,0.8-8.9,3.4-11.5,7.3c-1.1,1.6-1.9,3.5-2.1,5.5c-0.6,7.1-2.2,19.4,4.4,22.6
						s122.1,40,132.4,45.2c10.3,5.2,28.4,9.7,34.2,6.4c0,0,2.3,5.8,12.4,9c10.2,3.2,103.1,43.4,103.1,43.4l26.5,13.4h20V356.1
						c0,0-21.6-0.9-27.4-1.3s-10.3,2.4-11.3,4.4c0,0-1-3.6-6.5-4.4s-72-8.3-81.6-9.8s-32.9-3.2-37.9,5.5s-4.2,80.3-4.2,80.3
						l0.3,14.5L170.6,458.8z"/>
					<path class="st11" d="M115.5,471c0,0-16.1,2.5-11.5,5.3c4.5,2.8,16,5.8,27.9,9.9s45.7,15.9,51.9,17.9c6.3,1.9,7.8,0.7,6-2.6
						c-1.9-3.3-15.4-8.5-25.8-11.3c-10.5-2.8-33.6-11.9-37.8-13s-6.7-2.2-2-3.4C129.3,472.4,123.8,468.4,115.5,471z"/>
					<path class="st12" d="M270,567.7c15.2,5.5,101.7,42.9,101.7,42.9l22.5,11.4H413V355.9c-6.8-0.3-18.3-0.8-22.3-1.1
						c-5.8-0.5-10.3,2.4-11.3,4.4c0,0-0.3-1-1.4-2.1c-1.1-1-2.8-1-3.8,0.1l0,0c0,0-5.8,4.8-6.5,15.2c-0.6,9.2,0.4,86.6,1.6,102.2
						c0.1,1.8-0.7,3.5-2.1,4.6c-6.4,4.6-20.5,14.2-41.1,21.6c-25.5,9.2-71,21.7-72.9,33.4s-2.3,22-2.3,22s0.5,1.2,2,2.9
						c1.3-0.2,2.3-0.5,3.1-0.9c0,0,1.6,4.1,8.2,7.4C265.7,566,267.6,566.8,270,567.7z"/>
					<path class="st13" d="M366.2,476.3c0,0-42.9-11.8-63.7-16"/>
					<path class="st13" d="M243.9,528.1c0,0-24.1-8.2-41.1-12.5S95.5,479.7,95.5,479.7"/>
					<path class="st14" d="M353.8,431.8c-6.3-20.8-15-8.8-22.4-27.1s-20.7-26.3-20.7-26.3c-2.4-25.6-32.9-34.5-32.9-34.5
						s0.6,61.8,1.4,95c-4.3-1.1-9.1-1.9-14.5-2.5c-4.6-0.5-9.8-0.4-15.3,0.1l0.2,8.8l-78.9,13.6l-2.8,0.5
						c-9.9,3.9-16.2,6.7-16.2,6.7s-7.9,10.2,2,21.9c-2.5,0.7-4.7,1.2-6.2,1.5c-6.2,1.2-7.7,5.6-7.7,5.6l-1,26.6c0,0,0.6,0.9,1.5,2.1
						c2.6,0.8,5.2,1.7,7.8,2.6c0-7.6-0.5-19.1-0.6-24c-0.1-7.8,7.7-7.7,7.7-7.7l5.2-0.7c0.3,0.2,0.7,0.5,1,0.7
						c4.5,3.1,9.8,5.8,15.6,8.2c-2.8,3.5-2.6,7.5-2.6,7.5s4.6,19.6,6.7,27c7.8,2.6,15.1,5.1,21.3,7.2c-0.6-4.5-7-12.3-7-17.4
						c0-6.6-6.1-9.5-8.4-13.4c-2.1-3.6-0.3-6.8,0-7.3c18.3,5.6,39,7.5,53.6,5c11.7-2,26.7-6.2,39.7-12.5c7.8,3.2,17.9,5.1,29,5.1
						c24.7,0,44.7-9.5,44.7-21.3c0-2.9-1.2-5.7-3.5-8.3c1-1.8,2.2-3.9,3.5-6C357.4,462.4,360.1,452.6,353.8,431.8z"/>
					<path class="st10" d="M268.6,567.2c10.2,3.2,103.1,43.4,103.1,43.4l26.5,13.4h20V356.1c0,0-21.6-0.9-27.4-1.3
						c-4-0.3-7.4,1-9.4,2.4l-1.9,2c0,0-5.8,4.8-6.5,15.2c-0.6,9.2,0.4,86.6,1.6,102.2c0.1,1.8-0.7,3.5-2.1,4.6
						c-6.4,4.6-20.5,14.2-41.1,21.6c-25.5,9.2-71,21.7-72.9,33.4s-2.3,22-2.3,22S258.4,564,268.6,567.2z"/>
					<path class="st15" d="M297.8,435.4c-3.6,39.2-44.2,67.4-90.7,63.2c-46.5-4.3-81.2-39.5-77.6-78.6
						c3.6-39.2,28.7-120.6,91.3-119.5C289.1,301.7,301.4,396.3,297.8,435.4z"/>
					<path class="st16" d="M248,311.7c31.6,26,37.7,84.1,35.1,112c-3.3,36.3-41,62.5-84,58.5c-25.8-2.4-47.7-15-60.4-32.6
						c11,23.7,37,41.7,68.8,44.7c44.4,4.1,83.3-23,86.7-60.4C297.1,402.4,289.3,333.7,248,311.7z"/>
					<path class="st17" d="M243.9,361.9c0,28.6-23.2,51.8-51.8,51.8s-49.3-21.6-49.3-47.7c0-28.6,23.8-55.9,52.4-55.9
						S243.9,333.3,243.9,361.9z"/>
					<path class="st18" d="M146.2,347.3c0,0-0.5,3.3,2.2,7c2.7,3.8,8.3,9.8,6.1,19.6c-2.2,9.8-9.2,6.5-10,3.5
						c-0.8-2.9-6.5-22.6-4.4-26.9C142.2,346.3,146.2,347.3,146.2,347.3z"/>
					<path class="st18" d="M225.3,325.5c4.8,7.7,7.5,17.1,7.5,27.2c0,26.6-21.6,48.1-48.1,48.1c-12.8,0-23.8-4.6-31.9-12.1
						c7.8,12.7,22,21.3,39.4,21.3c26.6,0,48.1-21.6,48.1-48.1C240.4,347.4,234.8,334.3,225.3,325.5z"/>
					
						<ellipse transform="matrix(0.2995 -0.9541 0.9541 0.2995 -188.6181 421.4803)" class="st19" cx="192.7" cy="339.2" rx="2.8" ry="2"/>
					
						<ellipse transform="matrix(0.2995 -0.9541 0.9541 0.2995 -198.0126 402.3894)" class="st19" cx="175" cy="336" rx="2.8" ry="2"/>
					
						<ellipse transform="matrix(0.6606 -0.7507 0.7507 0.6606 -191.9994 244.6748)" class="st20" cx="174.6" cy="334.7" rx="0.8" ry="0.6"/>
					
						<ellipse transform="matrix(0.6606 -0.7507 0.7507 0.6606 -188.3973 259.0094)" class="st20" cx="192.3" cy="337.9" rx="0.8" ry="0.6"/>
					<path class="st13" d="M178.3,341.1c0,0,2.8,2.3,7.5,0.9"/>
					
						<ellipse transform="matrix(0.2192 -0.9757 0.9757 0.2192 -180.2451 468.2191)" class="st21" cx="202.4" cy="346.7" rx="5.5" ry="8.2"/>
					
						<ellipse transform="matrix(0.2192 -0.9757 0.9757 0.2192 -201.1648 423.2367)" class="st21" cx="163.9" cy="337.3" rx="4.9" ry="7.3"/>
					<path class="st18" d="M154.6,343.8c0,0,8.6,0,12.3,11c3.5,10.8-1.9,21-6.1,21.7c0,0,5-9.8,1.6-20.2
						C158.6,344.9,154.6,343.8,154.6,343.8z"/>
					<path class="st13" d="M151.7,341.7c0,0,13.1,6.5,11.3,26.2"/>
					<path class="st17" d="M147.2,344.9c0,0-3.9-3.9-8.8,0c-4.9,3.9-7.3,14.2-5.4,21.9c1.9,7.7,7.7,12.9,12.9,11.2
						s5.3-10.7,3.2-16.1s-5-8.6-3.5-12.8C147.2,344.9,147.2,344.9,147.2,344.9z"/>
					<path class="st17" d="M172.3,525.9c0,0-2.5,1.3-2.8,3.2s0.9,3.1,0.9,3.1s-17.1-1.5-24.6,6.7s-2.2,17,0.5,18.8s15.2,5.9,30.1-2
						s18.3-7.6,17.3-14.3s-5.4-12.6-5.4-12.6s-0.9-9.8-6.9-6.5C175.4,525.7,172.3,525.9,172.3,525.9z"/>
					<path class="st17" d="M123.7,511.1c0,0-1.2-1.9-4.3,0c-3.1,1.9-0.9,6-0.9,6s-14.4-3.9-22.5,3.6s-6.3,17.2,0,20.8s18.7,2.8,27,0
						s19.6-1.8,19.9-9s-2.1-11.3-5-14.8c0,0,1.9-3.4-1.2-5.3c-3.1-1.8-6.6,0.1-6.6,0.1L123.7,511.1z"/>
					<path class="st17" d="M135.5,519.2c0,0-4.8,4-12.4,1.3"/>
					<path class="st9" d="M177.9,531.6c-1.9,0-3.8-1.2-4.5-3.1c-0.3-0.7-7.4-18.1-9.4-24c-2.5-7.6,2.4-12.9,5.4-14.6
						c0.1-0.1,0.2-0.1,0.3-0.2l21.5-10.8c2.4-1.2,5.4-0.2,6.6,2.2c1.2,2.4,0.2,5.4-2.2,6.6l-21.3,10.6c-1.1,0.8-1.4,1.8-1,3
						c1.9,5.6,9.1,23.2,9.1,23.3c1,2.5-0.2,5.4-2.7,6.4C179.2,531.4,178.5,531.6,177.9,531.6z"/>
					<path class="st9" d="M127.3,517.1c-0.1,0-0.1,0-0.2,0c-2.7-0.1-4.8-2.4-4.7-5.1c0.1-2.2,0.9-21.8,1.8-26.7
						c1.2-6.5,7.3-9.4,12.6-10c1.4-0.2,16.8-2.7,26.2-4.3c2.7-0.4,5.2,1.4,5.7,4c0.4,2.7-1.4,5.2-4,5.7c-4.1,0.7-24.7,4.1-26.7,4.3
						c-1,0.1-3.8,0.7-4.1,2.1c-0.6,3.2-1.3,17.2-1.7,25.3C132.1,515.1,130,517.1,127.3,517.1z"/>
					<path class="st15" d="M339.5,466.6L313,403.9c-4.4-10.4-14.9-16.3-25.5-15.4l-4.1-9.9l-15.9,6.7l4.4,10.5
						c-7.1,7.1-9.6,18-5.5,27.8l27.5,65.4c0,0,3.4,7.3,10.2,8.6c6.8,1.3,9-5.3,9-5.3s15,7.4,18.2-8.2c0,0,7.7,3.7,10.3-2.7
						C344.3,474.8,339.5,466.6,339.5,466.6z"/>
					<line class="st13" x1="269.2" y1="421.3" x2="273.7" y2="431.8"/>
					<path class="st15" d="M310.6,405.5c-1.9-4.5-5.1-8.1-9-10.5"/>
					<path class="st13" d="M331.4,484c0,0,0.5-2.3,0.6-4.5"/>
					<path class="st13" d="M313.1,492.2c0,0-3.4-1.1-4.7-2.6"/>
					<path class="st22" d="M270.2,430.8c4.8-4.2,20.6-16.4,44.5-20.3c1.3-0.2,2.6,0.5,3.2,1.7l17,40.1c0.7,1.7-0.3,3.7-2.2,4
						c-21.3,3.8-35.9,14.1-41.8,18.9c-1.5,1.2-3.8,0.7-4.5-1.1l-17-40C268.9,433,269.2,431.6,270.2,430.8z"/>
					<path class="st15" d="M324.1,426.8c1.7,10,2.1,24.4-6.5,33.6c4.6-1.6,9.6-3.1,15.2-4c1.8-0.3,2.9-2.3,2.2-4L324.1,426.8z"/>
					<path class="st22" d="M265.9,377.1c2.7-1.6,7.4-4.2,12.4-5.4c1.5-0.4,3.1,0.4,3.7,1.9l3.4,8c-8.6,1.2-17.2,7.8-17.2,7.8
						l-3.5-8.3C264,379.6,264.6,377.9,265.9,377.1z"/>
					<path class="st17" d="M324.6,418.2c0,0-8-0.2-8,8s4.9,21.1,9.7,24.1s9.1,3.4,9.1,3.4l0.9,2.2L335,456l1.4,3.3
						c0,0,3.2,0.6,5.6-7.4C344.5,443.9,336.3,417.1,324.6,418.2z"/>
					<g>
						
							<ellipse transform="matrix(0.9674 -0.2532 0.2532 0.9674 -90.8314 85.8193)" class="st19" cx="288" cy="395.8" rx="1.5" ry="2.1"/>
						
							<ellipse transform="matrix(0.9674 -0.2532 0.2532 0.9674 -92.3041 83.1775)" class="st19" cx="277" cy="400.2" rx="1.5" ry="2.1"/>
						<path class="st13" d="M281.1,402.1c0,0,2.7,0.3,5-2.4"/>
					</g>
					<path class="st13" d="M271.9,536.9c0,0,17,4.7,26.5,8.2c9.5,3.4,103,40.6,107.1,43.2"/>
					<path class="st17" d="M186.8,531.6c0,0-3.9,5.5-10.2,3.9"/>
					<g>
						<path class="st15" d="M204.5,299.9c0,0-1.8,0.6-3.8,0.4c-1.9-0.3-1.4,2.5-1.1,3.5c0.3,1.1,2.2,0.6,3.5,0.5
							C204.3,304.2,206.9,303,204.5,299.9z"/>
						<path class="st15" d="M216.2,307.5c0,0-1-0.3-1.8,0.7c-0.8,0.9,0,2.3,0.5,3.5s2.4,1.4,3.4,1.1s1.1-1.9,1-3
							C219.1,308.6,218,306.9,216.2,307.5z"/>
						<path class="st15" d="M220.6,298.3c0,0-2-1.4-2.6-0.8c-0.6,0.5-1.5,2.2,0.3,3.6s3.1,1.8,3.6,1.1
							C222.5,301.5,224.1,300.2,220.6,298.3z"/>
						<path class="st15" d="M253.9,313.5c0,0,2.2,1,2.8,0.4c0.5-0.6,1.1-2.4-1-3.5s-3.3-1.2-3.8-0.5S250.2,312.2,253.9,313.5z"/>
						<path class="st15" d="M238.9,300.3c-0.9-0.2-2.5,0.1-3.9,0.2c-1.4,0.2-1.8,1.2-1.6,2.5s1.4,1.3,3.2,1s3.7,0,3.8-1.4
							C240.5,301.1,238.9,300.3,238.9,300.3z"/>
						<path class="st15" d="M241.3,311.2c0,0-2.4,1-3.5,1.2s0.6,1.5,1.2,3.4c0.6,1.9,3,0.9,4.1,0.4
							C244.2,315.8,241.3,311.2,241.3,311.2z"/>
					</g>
					<path class="st23" d="M174.4,337.4c0,0-0.4,0-0.4,0.3c-0.1,0.3,0.3,0.6,0.8,0.5c0.5,0,1.4-0.7,1.7-1.5s-0.3-0.7-0.5-0.4
						S175.3,337.3,174.4,337.4z"/>
					<path class="st23" d="M192.1,340.7c0,0-0.4,0-0.4,0.3c-0.1,0.3,0.3,0.6,0.8,0.5c0.5,0,1.4-0.7,1.7-1.5s-0.3-0.7-0.5-0.4
						S193,340.5,192.1,340.7z"/>
					<path class="st24" d="M292.7,416.9c-7.8,3.4-13.8,7.2-17.9,10.2c-1,7-0.7,14,0.1,19.8l7.3,17.2
						C281.7,440.8,289.2,423.7,292.7,416.9z"/>
					<path class="st11" d="M285.4,524.4c0,0-12.7,4.1-8.4,7.2c4.3,3.1,14.9,4.5,26.4,9.5s44.4,19.2,50.5,21.6
						c6.1,2.4,7.7,1.2,6.1-2.2c-1.6-3.5-14.7-9.6-24.9-13.1s-32.7-14.3-36.8-15.7c-4.1-1.4-7.7-1.8-3.6-4.5
						C298.8,524.4,291.1,522,285.4,524.4z"/>
				</g>
			</g>
		</g>
	</g>
	<g>
		<g>
			<g>
				<defs>
					
						<rect id="SVGID_00000002351273013391014660000000124277009097697195_" x="-0.3" y="0.6" transform="matrix(1 -4.549941e-03 4.549941e-03 1 -1.4567 0.8209)" width="360" height="640"/>
				</defs>
				<clipPath id="SVGID_00000010278860291985412690000003456317087072396474_">
					<use xlink:href="#SVGID_00000002351273013391014660000000124277009097697195_"  style="overflow:visible;"/>
				</clipPath>
				
					<ellipse transform="matrix(1 -1.516648e-03 1.516648e-03 1 -0.5994 0.4363)" style="clip-path:url(#SVGID_00000010278860291985412690000003456317087072396474_);fill:#FFFFFF;" cx="287.4" cy="395.4" rx="0.6" ry="0.8"/>
			</g>
		</g>
	</g>
	<g>
		<g>
			<g>
				<defs>
					
						<rect id="SVGID_00000034072078138566268600000002374770305986530213_" x="-0.3" y="0.3" transform="matrix(1 -4.549941e-03 4.549941e-03 1 -1.4557 0.8209)" width="360" height="640"/>
				</defs>
				<clipPath id="SVGID_00000026134802644968818030000008104532712317710779_">
					<use xlink:href="#SVGID_00000034072078138566268600000002374770305986530213_"  style="overflow:visible;"/>
				</clipPath>
				
					<ellipse transform="matrix(1 -1.516648e-03 1.516648e-03 1 -0.606 0.4198)" style="clip-path:url(#SVGID_00000026134802644968818030000008104532712317710779_);fill:#FFFFFF;" cx="276.5" cy="399.8" rx="0.6" ry="0.8"/>
			</g>
		</g>
	</g>
	<g>
		<g>
			<g>
				<defs>
					<rect id="SVGID_00000102524080837452614910000002461060400476391319_" width="360" height="640"/>
				</defs>
				<clipPath id="SVGID_00000022553809710952394770000018143846653024578438_">
					<use xlink:href="#SVGID_00000102524080837452614910000002461060400476391319_"  style="overflow:visible;"/>
				</clipPath>
				<g style="clip-path:url(#SVGID_00000022553809710952394770000018143846653024578438_);">
					<g>
						<g>
							<g>
								<path class="st28" d="M138.6,134.4c-1,0-1.9-0.4-2.6-1.1c-0.7-0.7-1.1-1.6-1.1-2.6V112c0-1,0.4-1.9,1.1-2.6
									c0.7-0.7,1.6-1.1,2.6-1.1h21.5c1,0,1.9,0.4,2.6,1.1s1.1,1.6,1.1,2.6v18.7c0,1-0.4,1.9-1.1,2.6c-0.7,0.7-1.6,1.1-2.6,1.1
									L138.6,134.4L138.6,134.4z M135,152.8c0-1,0.3-1.9,1-2.7s1.6-1.2,2.7-1.2c2.1,0,4.1-0.2,5.9-0.6c1.8-0.4,3.3-1,4.5-1.7
									s2.2-1.5,2.9-2.3c0.7-0.9,1.1-1.8,1.1-2.7V141c0-1.1,0.5-1.9,1.4-2.6c0.9-0.7,2.1-1.1,3.4-1.1c1.4,0,2.5,0.4,3.4,1.1
									c0.9,0.7,1.4,1.6,1.4,2.6v0.5c0,0.9,0.3,1.8,1,2.7s1.6,1.7,2.9,2.4c1.3,0.7,2.8,1.3,4.5,1.7c1.8,0.4,3.7,0.7,5.9,0.7
									c1.1,0,2,0.4,2.7,1.2s1,1.7,1,2.7s-0.3,1.9-1,2.7s-1.6,1.2-2.7,1.2c-4.8,0-8.8-0.7-12-2s-5.6-3.1-7.2-5.3
									c-1.7,2.2-4.1,3.9-7.3,5.3c-3.2,1.3-7.1,2-12,2c-1.1,0-2-0.4-2.7-1.2C135.3,154.8,135,153.9,135,152.8z M144.3,127.2h10.2
									v-11.6h-10.2V127.2z M171.4,111.8c0-0.7,0.1-1.3,0.4-1.9c0.2-0.6,0.6-1.1,1-1.5s0.9-0.8,1.5-1s1.2-0.4,1.9-0.4
									s1.3,0.1,1.9,0.4s1.1,0.6,1.5,1s0.8,0.9,1,1.5s0.4,1.2,0.4,1.9v24.6c0,1.4-0.5,2.5-1.4,3.4s-2,1.3-3.4,1.3
									c-1.3,0-2.5-0.4-3.4-1.3c-0.9-0.9-1.4-2-1.4-3.4V111.8z"/>
								<path class="st28" d="M186.8,151.5c0-1.1,0.4-2,1.2-2.8s1.7-1.1,2.8-1.1h35.1c0.4,0,0.7,0.3,0.7,0.7v6.5
									c0,0.4-0.3,0.7-0.7,0.7h-35.1c-1.1,0-2-0.4-2.8-1.2C187.2,153.5,186.8,152.6,186.8,151.5z M230.3,108.9c1,0,1.9,0.4,2.6,1.1
									c0.7,0.7,1.1,1.6,1.1,2.6s-0.4,1.9-1.1,2.6c-0.7,0.7-1.6,1.1-2.6,1.1h-23.1c-0.2,0-0.4-0.2-0.4-0.4v-6.5
									c0-0.2,0.2-0.4,0.4-0.4L230.3,108.9L230.3,108.9z M233.1,123.5c0,1-0.3,1.8-1,2.6c-0.7,0.7-1.5,1.1-2.5,1.1h-31.4v4.7h32.4
									c1,0,1.9,0.4,2.5,1.1c0.7,0.7,1,1.6,1,2.6s-0.3,1.9-1,2.6c-0.7,0.7-1.5,1.1-2.5,1.1h-38.3c-1,0-1.9-0.4-2.6-1.1
									c-0.7-0.7-1.1-1.6-1.1-2.6v-12c0-1,0.4-1.9,1.1-2.6c0.7-0.7,1.6-1.1,2.6-1.1h37.2c1,0,1.8,0.3,2.5,1
									C232.8,121.7,233.1,122.5,233.1,123.5z"/>
							</g>
							<path class="st28" d="M228.2,148v7c0,0.2,0.2,0.4,0.4,0.4h14.5c0,0,2.9,0,2.9-1.6c0-1.2-4.3-4.2-6.3-5.5
								c-0.7-0.4-1.4-0.7-2.2-0.7h-8.9C228.4,147.6,228.2,147.8,228.2,148z"/>
							<path class="st28" d="M205,109.3v6.6c0,0.2-0.2,0.4-0.4,0.4h-13c0,0-2.9,0-2.9-1.5c0-1.2,4.3-4,6.3-5.2
								c0.7-0.4,1.4-0.6,2.2-0.6h7.4C204.8,108.9,205,109.1,205,109.3z"/>
						</g>
					</g>
				</g>
			</g>
		</g>
	</g>
</g>
</svg>
