<svg width="80" height="40" viewBox="0 0 80 40" fill="none" xmlns="http://www.w3.org/2000/svg">
<g clip-path="url(#clip0_40_1942)">
<path d="M16.456 22.7423C15.9728 22.7295 15.5128 22.5277 15.171 22.1786C14.8292 21.8294 14.6316 21.3596 14.619 20.866V11.4847C14.6184 11.2387 14.6664 10.9951 14.7603 10.7685C14.8541 10.5419 14.9918 10.337 15.1652 10.1662C15.3331 9.99338 15.5349 9.85884 15.7574 9.77143C15.9799 9.68403 16.218 9.64574 16.456 9.6591H27.0311C27.2688 9.64887 27.506 9.68861 27.728 9.77584C27.9501 9.86306 28.1522 9.99593 28.3219 10.1662C28.4953 10.337 28.633 10.5419 28.7268 10.7685C28.8207 10.9951 28.8687 11.2387 28.8681 11.4847V20.866C28.8717 21.1125 28.825 21.357 28.7309 21.584C28.6369 21.811 28.4976 22.0155 28.3219 22.1845C28.1547 22.3615 27.9541 22.5022 27.7323 22.598C27.5105 22.6939 27.272 22.743 27.0311 22.7423H16.456ZM14.619 32.0223C14.6259 31.5119 14.8209 31.0231 15.1652 30.6531C15.3193 30.4562 15.5162 30.2987 15.7402 30.1931C15.9643 30.0875 16.2094 30.0366 16.456 30.0446C17.4404 30.0541 18.4229 29.9521 19.3853 29.7403C20.1639 29.5546 20.9151 29.2647 21.6194 28.8782C22.1675 28.5864 22.6562 28.1906 23.0592 27.7119C23.3602 27.3389 23.5344 26.8762 23.5557 26.3934V26.0385C23.5634 25.7787 23.6302 25.5242 23.7508 25.2954C23.8715 25.0665 24.0426 24.8695 24.2508 24.72C24.7433 24.3654 25.3368 24.1871 25.9388 24.2129C26.5418 24.1791 27.1378 24.3581 27.6269 24.72C27.8442 24.8599 28.0224 25.0548 28.1442 25.2858C28.266 25.5169 28.3272 25.7761 28.3219 26.0385V26.3427C28.3229 26.8297 28.4997 27.2991 28.8184 27.6612C29.2195 28.1554 29.7079 28.5683 30.2582 28.8782C30.9721 29.2429 31.7208 29.5318 32.4924 29.7403C33.4548 29.9521 34.4372 30.0541 35.4217 30.0446C35.6755 30.0365 35.9279 30.087 36.16 30.1923C36.3921 30.2977 36.5979 30.4552 36.7622 30.6531C37.0869 31.0321 37.2659 31.5186 37.2659 32.0223C37.2659 32.5259 37.0869 33.0124 36.7622 33.3914C36.5979 33.5893 36.3921 33.7468 36.16 33.8522C35.9279 33.9576 35.6755 34.0081 35.4217 33.9999C33.4066 34.0552 31.4002 33.7108 29.5135 32.9857C28.1096 32.4547 26.8738 31.5431 25.9388 30.3488C25.0148 31.5547 23.7755 32.4689 22.3642 32.9857C20.4785 33.7145 18.4713 34.0591 16.456 33.9999C16.2094 34.0079 15.9643 33.957 15.7402 33.8514C15.5162 33.7458 15.3193 33.5883 15.1652 33.3914C14.8209 33.0215 14.6259 32.5326 14.619 32.0223ZM19.2363 19.0912H24.2508V13.2595H19.2363V19.0912ZM32.5917 11.3833C32.5885 11.0559 32.6388 10.7302 32.7406 10.4198C32.8648 10.1405 33.0325 9.8836 33.2371 9.6591L33.9819 9.152C34.5952 8.95031 35.2551 8.95031 35.8685 9.152L36.6132 9.6591C36.8178 9.8836 36.9855 10.1405 37.1097 10.4198C37.2115 10.7302 37.2618 11.0559 37.2586 11.3833V23.8072C37.2687 24.124 37.2168 24.4397 37.106 24.7357C36.9952 25.0318 36.8276 25.3022 36.6132 25.5314C36.1444 25.9478 35.5464 26.1813 34.9252 26.1906C34.3023 26.1904 33.7013 25.9557 33.2371 25.5314C33.0227 25.3022 32.8552 25.0318 32.7444 24.7357C32.6335 24.4397 32.5816 24.124 32.5917 23.8072V11.3833Z" fill="#FFBF0B"/>
<path d="M40.1879 31.363C40.186 31.0972 40.2379 30.8338 40.3404 30.5895C40.443 30.3451 40.5939 30.1251 40.7837 29.9432C41.1612 29.584 41.658 29.3847 42.1739 29.3854H59.4515C59.5436 29.3854 59.632 29.4227 59.6972 29.4893C59.7624 29.5559 59.799 29.6462 59.799 29.7403V32.9858C59.799 33.0799 59.7624 33.1702 59.6972 33.2368C59.632 33.3033 59.5436 33.3407 59.4515 33.3407H42.1739C41.9136 33.3427 41.6557 33.2897 41.4165 33.185C41.1772 33.0803 40.9618 32.9261 40.7837 32.7322C40.5976 32.558 40.4487 32.3466 40.3462 32.111C40.2437 31.8754 40.1898 31.6208 40.1879 31.363V31.363ZM61.5863 9.91267C61.8276 9.909 62.067 9.95671 62.2893 10.0527C62.5115 10.1488 62.7117 10.2911 62.8772 10.4705C63.0514 10.6409 63.19 10.8456 63.2848 11.0722C63.3795 11.2987 63.4283 11.5426 63.4283 11.789C63.4283 12.0353 63.3795 12.2792 63.2848 12.5057C63.19 12.7323 63.0514 12.937 62.8772 13.1074C62.7093 13.2802 62.5074 13.4148 62.285 13.5022C62.0625 13.5896 61.8244 13.6279 61.5863 13.6145H50.2169C50.0679 13.6145 49.9686 13.5638 49.9686 13.4117V10.1155C49.9802 10.0574 50.0114 10.0052 50.0568 9.96818C50.1022 9.93112 50.1588 9.91148 50.2169 9.91267H61.5863ZM63.0261 17.2149C63.0268 17.4609 62.9787 17.7045 62.8849 17.9311C62.791 18.1577 62.6533 18.3625 62.48 18.5334C62.3317 18.7076 62.1486 18.8475 61.9432 18.9437C61.7377 19.0399 61.5145 19.0902 61.2884 19.0912H45.7982V21.4239H61.7849C62.0203 21.4099 62.2555 21.4532 62.4713 21.5501C62.6871 21.6471 62.8772 21.795 63.0261 21.9817C63.1953 22.1532 63.3271 22.3593 63.4126 22.5866C63.4982 22.8138 63.5357 23.057 63.5226 23.3001C63.5316 23.7889 63.3535 24.262 63.0261 24.6186C62.8677 24.7902 62.6747 24.9244 62.4603 25.012C62.2459 25.0996 62.0155 25.1384 61.7849 25.1257H42.9186C42.6809 25.1359 42.4437 25.0962 42.2216 25.009C41.9996 24.9217 41.7975 24.7889 41.6277 24.6186C41.4544 24.4478 41.3167 24.2429 41.2228 24.0163C41.129 23.7898 41.081 23.5462 41.0816 23.3001V17.2656C41.0819 17.0272 41.1306 16.7915 41.2246 16.5733C41.3186 16.3551 41.4558 16.1592 41.6277 15.9979C41.795 15.8209 41.9956 15.6802 42.2174 15.5843C42.4392 15.4885 42.6777 15.4394 42.9186 15.4401H61.2884C61.7346 15.4466 62.1613 15.6281 62.48 15.9472C62.818 16.2801 63.0142 16.7355 63.0261 17.2149V17.2149Z" fill="#FFBF0B"/>
<path d="M60.5933 29.5882V33.0872C60.5921 33.1465 60.6114 33.2044 60.6477 33.2507C60.6839 33.297 60.735 33.3289 60.7919 33.3408H67.9413C67.9413 33.3408 69.3811 33.2901 69.3811 32.4787C69.3811 31.6673 67.2462 30.3996 66.2532 29.6896C65.9226 29.4897 65.5452 29.3846 65.161 29.3854H60.7919C60.7392 29.3854 60.6887 29.4068 60.6515 29.4448C60.6142 29.4828 60.5933 29.5344 60.5933 29.5882V29.5882Z" fill="#FFBF0B"/>
<path d="M49.1742 10.1156V13.4117C49.1742 13.4655 49.1533 13.5171 49.116 13.5552C49.0788 13.5932 49.0283 13.6146 48.9756 13.6146H42.5213C42.5213 13.6146 41.0815 13.6146 41.0815 12.8539C41.0815 12.0933 43.2164 10.8762 44.2094 10.217C44.54 10.017 44.9174 9.91189 45.3016 9.91272H48.9756C49.0283 9.91272 49.0788 9.9341 49.116 9.97214C49.1533 10.0102 49.1742 10.0618 49.1742 10.1156Z" fill="#FFBF0B"/>
</g>
<defs>
<clipPath id="clip0_40_1942">
<rect width="54.7621" height="25.0001" fill="white" transform="translate(14.619 9)"/>
</clipPath>
</defs>
</svg>
