<svg width="360" height="181" viewBox="0 0 360 181" fill="none" xmlns="http://www.w3.org/2000/svg">
<path d="M360 180H0V0H359.701L360 180Z" fill="#CCCCCC"/>
<path d="M0 180H360L359.8 66.1165L0 151.08V180Z" fill="#999999" stroke="#534741" stroke-linecap="round" stroke-linejoin="round"/>
<path d="M359.701 31.7118C321.685 29.2187 286.364 27.324 270.698 27.324C263.244 27.3307 255.836 28.5085 248.747 30.8143L119.834 88.4542C119.834 88.4542 113.149 90.9472 113.149 101.618V127.944C113.149 127.944 110.455 133.33 119.834 136.022C129.213 138.715 311.308 165.74 360 173.019L359.701 31.7118Z" fill="#B3B3B3" stroke="#534741" stroke-linecap="round" stroke-linejoin="round"/>
<path d="M359.9 119.568C311.109 114.382 127.916 94.9363 119.834 92.6427C118.615 92.327 117.442 91.8578 116.341 91.2466C114.745 93.241 113.149 96.4322 113.149 101.618V127.945C113.149 127.945 110.455 133.33 119.834 136.022C129.213 138.715 311.308 165.74 360 173.019L359.9 119.568Z" fill="#B3B3B3" stroke="#534741" stroke-linecap="round" stroke-linejoin="round"/>
<path d="M183.692 151.679C183.203 151.675 182.722 151.555 182.289 151.33C181.855 151.105 181.481 150.78 181.197 150.382C180.941 150.049 180.752 149.668 180.643 149.262C180.534 148.855 180.507 148.431 180.563 148.014C180.618 147.597 180.756 147.195 180.968 146.831C181.179 146.468 181.461 146.149 181.796 145.895C195.865 135.224 197.062 126.05 197.062 125.95C197.186 125.112 197.629 124.354 198.298 123.834C198.967 123.314 199.811 123.072 200.654 123.158C201.484 123.258 202.242 123.68 202.765 124.333C203.287 124.985 203.532 125.817 203.448 126.648C203.448 127.047 202.251 138.515 185.588 150.981C185.334 151.218 185.036 151.402 184.711 151.522C184.385 151.642 184.039 151.695 183.692 151.679Z" fill="#F2E9DF" stroke="#534741" stroke-linecap="round" stroke-linejoin="round"/>
<path d="M353.514 25.7286C348.725 24.7314 345.432 27.1247 342.838 33.9059C340.244 40.6871 338.448 43.8782 336.353 44.2771C316.297 47.3685 294.346 51.7563 292.55 56.0444C292.417 56.3322 292.342 56.6435 292.33 56.9604C292.318 57.2773 292.369 57.5933 292.481 57.8903C292.592 58.1872 292.762 58.459 292.979 58.6899C293.196 58.9209 293.458 59.1063 293.747 59.2355L294.745 59.435C295.47 59.3933 296.15 59.0714 296.641 58.5375C297.24 57.9392 303.625 53.9502 342.14 48.266C342.14 48.266 347.727 48.266 349.623 45.2743C351.519 42.2826 358.304 26.8256 353.514 25.7286Z" fill="#F2E9DF" stroke="#534741" stroke-linecap="round" stroke-linejoin="round"/>
<path d="M359.9 55.6455C358.902 50.4599 352.716 49.5624 347.129 51.4571C341.541 53.3519 340.942 51.4571 340.942 51.4571C339.945 48.3657 338.049 42.1829 336.752 38.3934C335.455 34.604 334.257 34.9031 333.16 34.8034C329.867 34.3048 327.373 37.8948 324.18 42.4821L323.282 43.6788C319.59 48.8644 310.011 61.8283 309.911 62.0278C309.72 62.2735 309.581 62.5556 309.502 62.857C309.423 63.1583 309.406 63.4725 309.453 63.7804C309.5 64.0883 309.609 64.3835 309.773 64.6479C309.938 64.9124 310.155 65.1406 310.41 65.3186C310.811 65.6284 311.3 65.803 311.807 65.8173C312.197 65.8344 312.585 65.7518 312.934 65.5773C313.283 65.4028 313.582 65.1422 313.803 64.82C313.902 64.7203 323.481 51.6566 327.173 46.471L328.071 45.1746C329.318 43.3573 330.685 41.6249 332.162 39.989C333.559 43.7785 335.455 50.061 336.452 53.0527C336.686 55.8401 336.686 58.6421 336.452 61.4294C335.953 65.8173 339.047 68.3103 344.135 67.1137C349.224 65.917 360.998 60.8311 359.9 55.6455Z" fill="#F2E9DF" stroke="#534741" stroke-linecap="round" stroke-linejoin="round"/>
<path d="M260.721 52.7534C260.721 52.7534 237.772 60.4321 221.208 78.3822C204.645 96.3323 189.978 129.74 205.643 149.385C221.308 169.03 257.428 155.169 273.093 138.715C288.758 122.26 292.65 113.784 314.601 103.014C336.552 92.2437 329.568 62.0276 307.417 53.7506C281.973 44.0775 260.721 52.7534 260.721 52.7534Z" fill="white" stroke="#534741" stroke-linecap="round" stroke-linejoin="round"/>
<path d="M222.506 90.3489C222.506 90.3489 208.836 90.1495 200.554 104.609C192.273 119.069 197.86 134.925 211.53 139.512C231.985 146.294 251.541 136.321 256.829 120.465C262.118 104.609 241.863 88.7534 222.506 90.3489Z" fill="#FFBF0B" stroke="#534741" stroke-linecap="round" stroke-linejoin="round"/>
<path d="M241.663 96.0332C248.248 101.418 252.04 108.997 249.446 116.576C244.457 131.435 226.097 140.709 207.04 134.327L205.144 133.629C207.243 135.606 209.769 137.074 212.528 137.917C231.685 144.299 249.944 135.025 254.933 120.166C258.126 110.692 251.541 101.219 241.663 96.0332Z" fill="#FFA80D"/>
<path d="M250.743 165.54C250.143 165.533 249.556 165.362 249.046 165.046C248.536 164.729 248.122 164.28 247.849 163.745C247.466 162.991 247.398 162.116 247.66 161.312C247.922 160.508 248.492 159.841 249.246 159.457C258.925 154.571 262.616 138.415 264.313 130.637C265.758 124.63 268.185 118.902 271.497 113.684C271.739 113.337 272.047 113.041 272.404 112.813C272.761 112.585 273.159 112.43 273.576 112.356C273.993 112.282 274.421 112.291 274.834 112.382C275.248 112.473 275.639 112.644 275.987 112.886C276.334 113.129 276.63 113.437 276.858 113.794C277.086 114.15 277.242 114.548 277.316 114.965C277.39 115.382 277.381 115.809 277.29 116.222C277.199 116.636 277.027 117.027 276.785 117.374C273.911 121.877 271.819 126.833 270.599 132.033C268.503 141.407 264.512 158.859 252.14 165.141C251.729 165.422 251.239 165.562 250.743 165.54Z" fill="#F2E9DF" stroke="#534741" stroke-linecap="round" stroke-linejoin="round"/>
<path d="M259.224 172.621C258.126 167.634 257.428 164.144 257.428 164.144C257.428 164.144 259.224 163.546 257.727 161.651C256.231 159.756 249.346 156.565 247.55 159.457C241.734 161.362 236.248 164.154 231.286 167.734C226.297 171.524 226.796 176.61 230.588 180H249.346C250.954 178.755 252.367 177.276 253.537 175.612C253.534 177.131 253.875 178.631 254.534 180H258.725C259.823 178.504 260.022 175.812 259.224 172.621Z" fill="#FFBF0B" stroke="#534741" stroke-linecap="round" stroke-linejoin="round"/>
<path d="M187.384 152.477C187.384 152.477 189.18 151.579 187.783 149.385C186.386 147.191 180.599 142.604 178.503 146.393C178.503 146.393 168.725 148.687 165.432 148.687C162.14 148.687 161.641 151.679 162.14 152.477C162.739 153.015 163.472 153.382 164.262 153.54C165.052 153.698 165.869 153.641 166.63 153.374C166.63 153.374 158.448 155.069 158.747 161.651C159.046 168.233 172.616 170.726 179.9 165.54C185.188 161.751 186.286 159.357 187.384 152.477Z" fill="#FFBF0B" stroke="#534741" stroke-linecap="round" stroke-linejoin="round"/>
<path d="M221.768 120.574C222.227 119.513 222.067 118.422 221.409 118.137C220.752 117.853 219.846 118.483 219.387 119.544C218.927 120.606 219.088 121.697 219.745 121.981C220.402 122.266 221.308 121.636 221.768 120.574Z" fill="#534741"/>
<path d="M211.315 117.496C211.775 116.435 211.615 115.344 210.957 115.059C210.3 114.775 209.394 115.405 208.935 116.466C208.475 117.528 208.635 118.619 209.293 118.903C209.95 119.188 210.856 118.558 211.315 117.496Z" fill="#534741"/>
<path d="M214.623 114.083C214.623 114.083 213.525 119.169 219.712 115.778" stroke="#534741" stroke-linecap="round" stroke-linejoin="round"/>
<path opacity="0.8" d="M226.778 119.779C226.971 118.976 225.998 118.054 224.604 117.719C223.211 117.385 221.925 117.765 221.732 118.569C221.539 119.372 222.512 120.294 223.906 120.628C225.299 120.963 226.585 120.583 226.778 119.779Z" fill="#29ABE2"/>
<path opacity="0.8" d="M210.077 114.931C210.231 114.289 209.444 113.549 208.319 113.279C207.193 113.009 206.156 113.311 206.002 113.954C205.847 114.596 206.634 115.336 207.76 115.606C208.885 115.876 209.922 115.574 210.077 114.931Z" fill="#29ABE2"/>
<path d="M196.364 159.656C195.535 160.303 194.585 160.778 193.57 161.053C191.973 161.452 193.171 163.346 193.67 164.144C194.169 164.942 195.565 163.945 196.563 163.446C197.561 162.947 199.058 161.352 196.364 159.656Z" fill="white" stroke="#534741" stroke-linecap="round" stroke-linejoin="round"/>
<path d="M196.763 171.324C196.479 171.372 196.215 171.502 196.002 171.696C195.79 171.891 195.638 172.142 195.565 172.421C195.166 173.319 196.164 174.116 196.862 174.914C197.561 175.712 199.157 175.313 199.856 174.814C200.554 174.316 200.255 173.019 199.756 172.122C199.257 171.224 197.86 170.327 196.763 171.324Z" fill="white" stroke="#534741" stroke-linecap="round" stroke-linejoin="round"/>
<path d="M212.428 161.053C212.428 161.053 210.432 160.554 210.133 161.152C209.982 161.407 209.897 161.695 209.884 161.99C209.871 162.285 209.932 162.579 210.06 162.846C210.188 163.112 210.381 163.343 210.62 163.517C210.859 163.691 211.137 163.804 211.43 163.845C213.226 164.443 214.324 164.344 214.523 163.645C214.723 162.947 215.721 161.551 212.428 161.053Z" fill="white" stroke="#534741" stroke-linecap="round" stroke-linejoin="round"/>
<path d="M239.568 159.357C239.568 159.357 241.563 159.457 241.763 158.859C241.88 158.583 241.925 158.282 241.896 157.983C241.866 157.685 241.762 157.399 241.593 157.151C241.425 156.903 241.197 156.701 240.93 156.564C240.663 156.427 240.366 156.359 240.067 156.366C238.171 156.166 237.073 156.366 236.973 157.064C236.874 157.762 236.275 159.457 239.568 159.357Z" fill="white" stroke="#534741" stroke-linecap="round" stroke-linejoin="round"/>
<path d="M219.811 150.98C218.784 151.256 217.807 151.693 216.918 152.277C215.92 152.775 215.82 153.673 216.319 154.67C216.818 155.667 217.816 155.269 219.113 154.471C220.41 153.673 222.007 153.374 221.707 152.277C221.408 151.18 219.811 150.98 219.811 150.98Z" fill="white" stroke="#534741" stroke-linecap="round" stroke-linejoin="round"/>
<path d="M227.195 163.147C226.458 163.852 225.656 164.487 224.8 165.042C223.902 165.54 225.698 166.039 226.696 167.335C227.694 168.632 229.29 167.236 229.989 166.538C230.687 165.839 227.195 163.147 227.195 163.147Z" fill="white" stroke="#534741" stroke-linecap="round" stroke-linejoin="round"/>
<path opacity="0.7" d="M0 0V180H360L359.701 0H0ZM230.488 173.618C220.064 173.637 209.868 170.566 201.192 164.792C192.515 159.019 185.747 150.802 181.744 141.183C177.741 131.563 176.684 120.973 178.705 110.753C180.727 100.533 185.736 91.1413 193.1 83.7676C200.464 76.3938 209.851 71.3691 220.073 69.3294C230.296 67.2896 240.893 68.3265 250.526 72.3088C260.158 76.2911 268.392 83.0398 274.185 91.7008C279.979 100.362 283.071 110.546 283.071 120.964C283.084 127.874 281.734 134.719 279.097 141.106C276.46 147.494 272.589 153.299 267.705 158.19C262.821 163.08 257.02 166.96 250.634 169.608C244.247 172.255 237.402 173.618 230.488 173.618Z" fill="black"/>
<path d="M40.1108 37.1967C39.7403 37.1967 39.385 37.0496 39.123 36.7878C38.861 36.5259 38.7139 36.1708 38.7139 35.8005V29.2188C38.7135 28.9876 38.7604 28.7586 38.8518 28.5462C38.9432 28.3337 39.0772 28.1422 39.2454 27.9834C39.4137 27.8246 39.6126 27.7019 39.8301 27.6228C40.0475 27.5437 40.2789 27.5099 40.5099 27.5235C40.9597 27.5235 41.3912 27.7021 41.7093 28.0201C42.0274 28.338 42.2061 28.7692 42.2061 29.2188V30.0166H45.8979V29.2188C45.899 28.7696 46.0784 28.3392 46.3968 28.0222C46.5462 27.8546 46.7313 27.7228 46.9386 27.6365C47.1459 27.5502 47.3699 27.5116 47.5941 27.5235C47.8346 27.4956 48.0782 27.5264 48.3041 27.6132C48.53 27.7001 48.7315 27.8404 48.8913 28.0222C49.2096 28.3392 49.389 28.7696 49.3901 29.2188V35.8005C49.3988 35.9856 49.3676 36.1704 49.2988 36.3424C49.2299 36.5144 49.125 36.6697 48.991 36.7978C48.707 37.0294 48.3588 37.1686 47.9932 37.1967H40.1108ZM43.2039 45.7728C42.6904 45.7703 42.1822 45.6687 41.7072 45.4737C41.248 45.364 40.8314 45.1212 40.5099 44.7756C40.132 44.4638 39.8543 44.0475 39.7117 43.5789C39.5076 43.1421 39.4053 42.6648 39.4123 42.1828C39.4149 41.6696 39.5165 41.1617 39.7117 40.687C39.8835 40.2613 40.1576 39.8845 40.5099 39.59C40.8511 39.2461 41.2583 38.9747 41.7072 38.7922C42.1883 38.6287 42.6968 38.561 43.2039 38.5928H51.8846C52.3917 38.561 52.9002 38.6287 53.3813 38.7922L54.5786 39.59C54.9 39.9121 55.1693 40.2822 55.3768 40.687C55.572 41.1617 55.6736 41.6696 55.6762 42.1828C55.6832 42.6648 55.5808 43.1421 55.3768 43.5789C55.1943 44.0276 54.9227 44.4346 54.5786 44.7756C54.2272 45.0818 53.8209 45.3186 53.3813 45.4737C52.9063 45.6687 52.3981 45.7703 51.8846 45.7728H43.2039ZM45.8979 34.5041V32.7091H42.2061V34.5041H45.8979ZM42.9046 42.1828C42.9004 42.314 42.925 42.4444 42.9767 42.565C43.0284 42.6857 43.106 42.7935 43.2039 42.8809L44.0021 43.0803H51.0864L51.7848 42.8809C51.9676 42.6945 52.07 42.4438 52.07 42.1828C52.07 41.9218 51.9676 41.6712 51.7848 41.4848C51.6925 41.3987 51.581 41.3357 51.4596 41.301C51.3382 41.2664 51.2103 41.261 51.0864 41.2853H44.0021C43.7202 41.2458 43.434 41.3173 43.2039 41.4848C43.106 41.5722 43.0284 41.68 42.9767 41.8006C42.925 41.9212 42.9004 42.0517 42.9046 42.1828ZM51.8846 28.9197C51.8684 28.6499 51.9022 28.3794 51.9844 28.1219L52.3835 27.6233L52.9822 27.2244H54.3791L54.9777 27.6233L55.3768 28.1219C55.3768 28.421 55.4766 28.6205 55.4766 28.9197V31.0138H56.5742C56.7594 31.0052 56.9442 31.0363 57.1164 31.1052C57.2885 31.174 57.4438 31.2788 57.572 31.4127C57.8174 31.687 57.9531 32.042 57.9531 32.41C57.9531 32.7779 57.8174 33.1329 57.572 33.4072C57.2879 33.6388 56.9397 33.778 56.5742 33.8061H55.4766V36.3989C55.4898 36.6379 55.4521 36.877 55.3661 37.1005C55.2801 37.3239 55.1478 37.5266 54.9777 37.6953C54.6263 38.0248 54.1625 38.2082 53.6806 38.2082C53.1987 38.2082 52.7349 38.0248 52.3835 37.6953C52.2135 37.5266 52.0811 37.3239 51.9951 37.1005C51.9091 36.877 51.8715 36.6379 51.8846 36.3989V28.9197Z" fill="white"/>
<path d="M58.2704 37.5956C58.2704 37.2254 58.4176 36.8703 58.6795 36.6084C58.9415 36.3466 59.2968 36.1995 59.6673 36.1995H64.756V33.9059H60.4655C60.1098 33.9132 59.7607 33.8086 59.4677 33.6067C59.2223 33.3325 59.0866 32.9774 59.0866 32.6095C59.0866 32.2416 59.2223 31.8865 59.4677 31.6123C59.7607 31.4104 60.1098 31.3058 60.4655 31.3131H72.1396V30.615C72.1924 30.5229 72.2264 30.4212 72.2394 30.3159H60.266C59.9004 30.2878 59.5523 30.1486 59.2682 29.917C59.1342 29.7889 59.0293 29.6336 58.9604 29.4616C58.8916 29.2896 58.8604 29.1048 58.8691 28.9197C58.8533 28.7339 58.8811 28.547 58.9504 28.3739C59.0197 28.2007 59.1285 28.0462 59.2682 27.9225C59.3963 27.7886 59.5517 27.6837 59.7238 27.6149C59.8959 27.5461 60.0808 27.515 60.266 27.5236H74.4345C74.6197 27.515 74.8045 27.5461 74.9767 27.6149C75.1488 27.6837 75.3041 27.7886 75.4323 27.9225C75.6779 28.1578 75.8213 28.4801 75.8314 28.82C75.8314 29.1192 75.7316 29.5181 75.7316 30.0167V31.6123C75.6318 32.1109 75.6318 32.7092 75.532 33.2078C75.4323 33.7064 75.4323 34.2051 75.3325 34.5042C75.2178 34.879 74.9692 35.1984 74.634 35.4017C74.305 35.6058 73.9236 35.7097 73.5365 35.7009C73.087 35.6998 72.6564 35.5205 72.3391 35.2023C72.0358 34.9159 71.8567 34.5221 71.8403 34.1053V33.9059H68.2482V36.1995H75.1329C75.3188 36.1837 75.5059 36.2115 75.6791 36.2808C75.8524 36.3501 76.007 36.4588 76.1307 36.5984C76.2647 36.7265 76.3696 36.8818 76.4385 37.0538C76.5073 37.2258 76.5385 37.4106 76.5298 37.5956C76.5464 37.767 76.5184 37.9396 76.4485 38.0969C76.3785 38.2542 76.2691 38.3907 76.1307 38.4932C76.0174 38.651 75.8673 38.7788 75.6935 38.8657C75.5196 38.9526 75.3273 38.9958 75.1329 38.9918H59.6673C59.4756 38.9816 59.2881 38.9321 59.1164 38.8463C58.9448 38.7605 58.7926 38.6403 58.6695 38.4932C58.5312 38.3907 58.4217 38.2542 58.3517 38.0969C58.2818 37.9396 58.2538 37.767 58.2704 37.5956ZM75.8314 44.4765C75.8606 44.7022 75.8299 44.9316 75.7423 45.1417C75.6548 45.3517 75.5134 45.5351 75.3325 45.6732C75.0152 45.9914 74.5846 46.1707 74.1352 46.1718C73.896 46.185 73.6567 46.1473 73.4332 46.0614C73.2096 45.9754 73.0068 45.8431 72.838 45.6732C72.6571 45.5351 72.5158 45.3517 72.4282 45.1417C72.3406 44.9316 72.3099 44.7022 72.3391 44.4765V42.7812H60.266C60.0808 42.7899 59.8959 42.7587 59.7238 42.6899C59.5517 42.6211 59.3963 42.5162 59.2682 42.3823C59.1285 42.2587 59.0197 42.1041 58.9504 41.931C58.8811 41.7579 58.8533 41.5709 58.8691 41.3851C58.8612 41.2148 58.8932 41.045 58.9625 40.8892C59.0318 40.7334 59.1365 40.5959 59.2682 40.4876C59.3963 40.3537 59.5517 40.2488 59.7238 40.18C59.8959 40.1112 60.0808 40.0801 60.266 40.0887H74.2349C74.4353 40.0783 74.6357 40.1082 74.8242 40.1768C75.0128 40.2453 75.1856 40.351 75.3325 40.4876C75.5134 40.6258 75.6548 40.8091 75.7423 41.0191C75.8299 41.2292 75.8606 41.4586 75.8314 41.6843V44.4765Z" fill="white"/>
<path d="M84.113 43.4792C84.1339 43.2358 84.2017 42.9988 84.3126 42.7812C84.3342 42.6593 84.3809 42.5433 84.4496 42.4403C84.5183 42.3373 84.6075 42.2497 84.7117 42.1828C85.3549 41.6254 85.9249 40.9887 86.4079 40.2881C86.9235 39.5901 87.3274 38.8163 87.6053 37.9944C87.9887 37.1013 88.2569 36.163 88.4035 35.2022C88.5033 34.1053 88.6031 32.9086 88.6031 31.6122V30.8144H85.8093C85.6234 30.8302 85.4363 30.8024 85.2631 30.7331C85.0898 30.6639 84.9352 30.5551 84.8115 30.4155C84.6642 30.2925 84.5439 30.1404 84.4581 29.9688C84.3723 29.7972 84.3227 29.6098 84.3126 29.4183C84.3085 29.2098 84.3512 29.0031 84.4375 28.8132C84.5239 28.6234 84.6516 28.4553 84.8115 28.3213C84.9352 28.1817 85.0898 28.073 85.2631 28.0037C85.4363 27.9345 85.6234 27.9066 85.8093 27.9224H94.9889C95.1892 27.9075 95.3904 27.936 95.5788 28.0059C95.7671 28.0758 95.9382 28.1855 96.0802 28.3275C96.2223 28.4695 96.3321 28.6404 96.402 28.8287C96.472 29.0169 96.5004 29.218 96.4855 29.4183C96.4942 29.6033 96.463 29.7881 96.3942 29.9601C96.3253 30.1322 96.2204 30.2874 96.0864 30.4155C95.9431 30.5572 95.7708 30.6662 95.5814 30.7351C95.3919 30.8039 95.1898 30.831 94.9889 30.8144H92.1951V31.6122C92.1874 32.8154 92.2875 34.0169 92.4944 35.2022C92.6212 36.1563 92.8555 37.093 93.1929 37.9944C93.4711 38.7855 93.8754 39.5263 94.3902 40.1884C94.9022 40.8657 95.4696 41.4995 96.0864 42.0831C96.253 42.258 96.388 42.4605 96.4855 42.6814C96.6375 42.8808 96.7087 43.13 96.6851 43.3795C96.7143 43.6052 96.6836 43.8346 96.5961 44.0446C96.5085 44.2547 96.3671 44.438 96.1862 44.5762C95.869 44.8943 95.4383 45.0737 94.9889 45.0748H94.3902L93.7915 44.7756C93.0465 44.0843 92.3775 43.3154 91.796 42.482C91.2315 41.604 90.7632 40.6678 90.3991 39.6897C90.1176 40.7322 89.6438 41.713 89.0022 42.5817C88.4499 43.4375 87.7779 44.2099 87.0066 44.8753L86.5077 45.1745H85.8093C85.5865 45.1745 85.3659 45.1307 85.1601 45.0455C84.9544 44.9603 84.7674 44.8354 84.6099 44.678C84.4523 44.5205 84.3274 44.3337 84.2422 44.128C84.1569 43.9223 84.113 43.7018 84.113 43.4792ZM98.2815 28.9197C98.2654 28.6499 98.2992 28.3794 98.3813 28.1219C98.4561 27.9164 98.5963 27.7413 98.7804 27.6233C98.8473 27.5191 98.935 27.4299 99.0381 27.3613C99.1411 27.2926 99.2572 27.246 99.3791 27.2244H100.776C100.982 27.2991 101.157 27.4392 101.275 27.6233C101.459 27.7413 101.599 27.9164 101.674 28.1219C101.786 28.3743 101.854 28.6442 101.874 28.9197V44.1773C101.881 44.425 101.831 44.6711 101.727 44.8961C101.624 45.1212 101.469 45.3189 101.275 45.4737C100.958 45.7919 100.527 45.9712 100.078 45.9723C99.5976 45.9762 99.1341 45.798 98.7804 45.4737C98.5986 45.314 98.4582 45.1126 98.3713 44.8869C98.2844 44.6611 98.2536 44.4176 98.2815 44.1773V28.9197Z" fill="white"/>
<path d="M118.337 40.7867H115.344C114.978 40.7586 114.63 40.6194 114.346 40.3878C114.149 40.0926 114.043 39.7456 114.043 39.3906C114.043 39.0356 114.149 38.6885 114.346 38.3933C114.474 38.2595 114.629 38.1546 114.802 38.0858C114.974 38.017 115.158 37.9858 115.344 37.9944H118.337V34.4044H114.845C114.638 35.3838 114.372 36.3497 114.047 37.2964C113.653 38.3306 113.116 39.3042 112.45 40.1884C111.786 41.1385 110.978 41.9796 110.055 42.6814C108.994 43.5373 107.818 44.2421 106.563 44.7756L106.164 44.9751H105.665C105.457 44.9791 105.25 44.9365 105.06 44.8502C104.87 44.7639 104.702 44.6362 104.568 44.4764C104.387 44.3383 104.245 44.155 104.158 43.9449C104.07 43.7348 104.039 43.5054 104.069 43.2798C104.075 42.9572 104.18 42.6443 104.368 42.3823C104.521 42.0816 104.766 41.8372 105.067 41.6842C106.162 41.1246 107.198 40.4564 108.16 39.6897C108.939 38.92 109.611 38.0477 110.155 37.0969C110.709 36.2149 111.082 35.232 111.253 34.205C111.533 33.1309 111.667 32.024 111.652 30.9141H105.865C105.448 30.8977 105.054 30.7187 104.767 30.4155C104.633 30.2874 104.528 30.1322 104.459 29.9601C104.391 29.7881 104.359 29.6033 104.368 29.4183C104.351 29.2175 104.379 29.0155 104.447 28.8261C104.516 28.6368 104.625 28.4645 104.767 28.3213C104.914 28.1847 105.087 28.079 105.275 28.0105C105.464 27.9419 105.664 27.912 105.865 27.9224H113.847C114.032 27.9138 114.217 27.9449 114.389 28.0137C114.561 28.0826 114.717 28.1874 114.845 28.3213C115.097 28.5929 115.239 28.9482 115.244 29.3185V31.0138C115.244 31.2133 115.144 31.4127 115.144 31.6122H118.337V28.9197C118.357 28.6442 118.425 28.3743 118.537 28.1219L118.836 27.6233L119.435 27.2244H120.831L121.43 27.6233C121.614 27.7413 121.754 27.9164 121.829 28.1219C121.911 28.3794 121.945 28.6499 121.929 28.9197V44.1773C121.944 44.4168 121.907 44.6567 121.822 44.8811C121.737 45.1054 121.605 45.3092 121.435 45.4789C121.266 45.6486 121.062 45.7803 120.837 45.8653C120.613 45.9504 120.373 45.9868 120.133 45.9723C119.656 45.9584 119.199 45.7825 118.836 45.4737C118.511 45.1202 118.333 44.6569 118.337 44.1773V40.7867Z" fill="white"/>
<path d="M127.417 43.4792L128.015 41.4848C128.206 40.7988 128.339 40.0984 128.415 39.3906H125.321C124.985 39.3673 124.669 39.2233 124.43 38.985C124.192 38.7467 124.048 38.4303 124.024 38.0942C124.009 37.9084 124.036 37.7214 124.106 37.5483C124.175 37.3752 124.284 37.2206 124.423 37.0969C124.527 36.9524 124.661 36.8327 124.816 36.7465C124.972 36.6602 125.144 36.6096 125.321 36.5983H136.397C136.588 36.6085 136.776 36.658 136.948 36.7438C137.119 36.8296 137.271 36.9498 137.395 37.0969C137.647 37.3685 137.789 37.7238 137.794 38.0942C137.766 38.4297 137.625 38.7459 137.395 38.9917C137.266 39.1256 137.111 39.2304 136.939 39.2993C136.767 39.3681 136.582 39.3992 136.397 39.3906H132.007C131.923 40.2946 131.789 41.1935 131.607 42.0831C131.448 42.9445 131.18 43.7822 130.809 44.5762C130.695 44.9509 130.446 45.2704 130.111 45.4737C129.776 45.6639 129.398 45.7668 129.013 45.7728L128.215 45.5734C128.087 45.5347 127.968 45.4706 127.865 45.3849C127.762 45.2993 127.678 45.1938 127.616 45.0748C127.516 44.9685 127.437 44.8431 127.386 44.7061C127.335 44.5691 127.311 44.4232 127.317 44.277C127.301 44.0072 127.335 43.7367 127.417 43.4792ZM124.623 31.5125C124.583 30.9726 124.651 30.4303 124.823 29.9169C124.99 29.4313 125.263 28.9887 125.621 28.6205L126.718 27.8227L128.115 27.6233H133.304L134.701 27.8227L135.798 28.6205C136.089 29.0186 136.324 29.4548 136.497 29.9169C136.897 30.9429 136.897 32.082 136.497 33.108C136.346 33.5496 136.109 33.9565 135.798 34.3047C135.51 34.6633 135.131 34.9386 134.701 35.1025C134.261 35.2973 133.785 35.3992 133.304 35.4017H128.115C127.633 35.4087 127.155 35.3064 126.718 35.1025C126.274 34.9656 125.888 34.685 125.621 34.3047C125.243 33.9928 124.965 33.5766 124.823 33.108C124.651 32.5946 124.583 32.0523 124.623 31.5125ZM128.115 31.5125C128.122 31.835 128.226 32.1479 128.415 32.41C128.502 32.5078 128.61 32.5853 128.731 32.637C128.851 32.6887 128.982 32.7133 129.113 32.7091H132.206C132.352 32.715 132.498 32.6915 132.636 32.6402C132.773 32.5888 132.898 32.5105 133.004 32.41C133.193 32.1479 133.297 31.835 133.304 31.5125C133.317 31.3504 133.298 31.1872 133.247 31.0329C133.195 30.8786 133.113 30.7364 133.004 30.6149C132.898 30.5144 132.773 30.4361 132.636 30.3847C132.498 30.3334 132.352 30.3099 132.206 30.3158H129.113C128.982 30.3116 128.851 30.3362 128.731 30.3879C128.61 30.4396 128.502 30.5171 128.415 30.6149C128.306 30.7364 128.224 30.8786 128.172 31.0329C128.121 31.1872 128.101 31.3504 128.115 31.5125ZM138.293 43.3795H135C134.629 43.3795 134.274 43.2324 134.012 42.9706C133.75 42.7088 133.603 42.3536 133.603 41.9834C133.603 41.6131 133.75 41.258 134.012 40.9962C134.274 40.7343 134.629 40.5872 135 40.5872H138.293V28.9197C138.276 28.6499 138.31 28.3794 138.392 28.1219C138.467 27.9164 138.607 27.7413 138.792 27.6233L139.39 27.2244H140.787L141.386 27.6233L141.685 28.1219C141.797 28.3743 141.865 28.6442 141.885 28.9197V44.1773C141.889 44.6569 141.71 45.1202 141.386 45.4737C141.023 45.7825 140.565 45.9584 140.089 45.9723C139.849 45.9868 139.609 45.9504 139.384 45.8653C139.16 45.7803 138.956 45.6486 138.786 45.4789C138.617 45.3092 138.485 45.1054 138.4 44.8811C138.315 44.6567 138.278 44.4168 138.293 44.1773V43.3795Z" fill="white"/>
<path d="M149.568 37.2963L148.769 36.8975H147.971L147.273 37.0969C147.027 37.1978 146.818 37.3719 146.674 37.5955C146.546 37.7294 146.39 37.8343 146.218 37.9031C146.046 37.9719 145.861 38.003 145.676 37.9944C145.468 37.9985 145.261 37.9558 145.071 37.8695C144.881 37.7832 144.713 37.6555 144.579 37.4958C144.431 37.3727 144.311 37.2207 144.225 37.0491C144.139 36.8775 144.09 36.6901 144.08 36.4986C144.108 36.1332 144.247 35.7852 144.479 35.5013C144.871 35.0239 145.344 34.6189 145.876 34.3047L147.572 33.9058C148.112 33.8604 148.656 33.9283 149.168 34.1052L150.565 34.8033L151.364 35.1024H152.162L152.86 34.903L153.459 34.4044C153.587 34.2705 153.742 34.1656 153.914 34.0968C154.087 34.028 154.271 33.9969 154.457 34.0055C154.661 33.9918 154.867 34.0204 155.06 34.0894C155.253 34.1584 155.43 34.2664 155.58 34.4067C155.73 34.547 155.849 34.7166 155.93 34.9049C156.012 35.0932 156.054 35.2962 156.053 35.5013C156.043 35.8412 155.9 36.1636 155.654 36.3988C155.321 36.9301 154.833 37.3475 154.257 37.5955C153.722 37.8523 153.15 38.0206 152.561 38.0941C152.021 38.1395 151.477 38.0716 150.964 37.8947C150.466 37.782 149.993 37.5792 149.568 37.2963Z" fill="white"/>
<path d="M38.1152 71.2022C38.1552 70.7781 38.2917 70.3688 38.5143 70.0056C39.1164 69.3328 39.5899 68.5554 39.9112 67.7119C40.2365 66.867 40.5032 66.0007 40.7095 65.1191C40.909 64.1219 41.1086 63.2244 41.2084 62.3269C41.2879 61.4317 41.3212 60.533 41.3081 59.6344V56.8421C41.3092 56.3929 41.4887 55.9625 41.807 55.6454C42.1701 55.3366 42.6276 55.1607 43.1041 55.1468C43.546 55.1823 43.9652 55.3568 44.3015 55.6454C44.6198 55.9625 44.7993 56.3929 44.8004 56.8421V59.6344C44.7873 60.533 44.8206 61.4317 44.9002 62.3269C45.0181 63.2327 45.1847 64.1315 45.399 65.0194C45.6081 65.9445 45.9089 66.8465 46.2971 67.7119C46.5696 68.5266 47.0117 69.2743 47.5942 69.9058C47.8168 70.2691 47.9533 70.6784 47.9933 71.1025C47.9922 71.5517 47.8127 71.9821 47.4944 72.2992C47.3609 72.4911 47.1813 72.6465 46.9721 72.751C46.7629 72.8556 46.5308 72.9059 46.2971 72.8975L45.5986 72.6981L44.9999 72.2992C44.5427 71.671 44.142 71.0036 43.8026 70.3047C43.5107 69.4914 43.2773 68.6582 43.1041 67.8116C42.913 68.6648 42.6459 69.4992 42.3059 70.3047C42.0219 71.0427 41.6536 71.7454 41.2084 72.3989L40.6097 72.7978L39.8115 72.9972C39.5777 73.0057 39.3456 72.9553 39.1364 72.8508C38.9272 72.7462 38.7476 72.5908 38.6141 72.3989C38.2958 72.0818 38.1163 71.6514 38.1152 71.2022ZM52.9822 65.1191H51.8846V71.9003C51.8982 72.1312 51.8645 72.3624 51.7853 72.5797C51.7062 72.797 51.5834 72.9959 51.4245 73.164C51.2656 73.3322 51.074 73.4661 50.8614 73.5574C50.6488 73.6488 50.4198 73.6957 50.1884 73.6953L49.49 73.4959L48.9911 73.1967C48.8245 73.0217 48.6895 72.8193 48.592 72.5984C48.5035 72.3769 48.4693 72.1376 48.4922 71.9003V56.6427C48.4776 56.4381 48.5118 56.2331 48.592 56.0443C48.6895 55.8234 48.8245 55.621 48.9911 55.446C49.1091 55.262 49.2844 55.1218 49.49 55.0471H50.1884C50.6378 55.0482 51.0685 55.2275 51.3857 55.5457C51.5667 55.6839 51.708 55.8672 51.7956 56.0773C51.8832 56.2873 51.9139 56.5167 51.8846 56.7424V62.2272H52.9822V56.543C52.9702 56.3189 53.0088 56.0949 53.0952 55.8878C53.1816 55.6806 53.3134 55.4956 53.4811 55.3463C53.799 55.0296 54.2296 54.8518 54.6784 54.8518C55.1273 54.8518 55.5578 55.0296 55.8758 55.3463C56.0434 55.4956 56.1753 55.6806 56.2617 55.8878C56.348 56.0949 56.3866 56.3189 56.3747 56.543V72C56.3747 72.2226 56.3308 72.4431 56.2455 72.6488C56.1603 72.8545 56.0354 73.0413 55.8778 73.1988C55.7203 73.3562 55.5333 73.4811 55.3275 73.5663C55.1217 73.6515 54.9012 73.6953 54.6784 73.6953C54.4557 73.6953 54.2351 73.6515 54.0293 73.5663C53.8235 73.4811 53.6365 73.3562 53.479 73.1988C53.3215 73.0413 53.1966 72.8545 53.1113 72.6488C53.0261 72.4431 52.9822 72.2226 52.9822 72V65.1191Z" fill="#FFBF0B"/>
<path d="M58.2705 71.6012C58.2555 71.401 58.284 71.1999 58.354 71.0116C58.4239 70.8234 58.5337 70.6525 58.6757 70.5105C58.8178 70.3685 58.9889 70.2588 59.1772 70.1889C59.3655 70.119 59.5668 70.0905 59.7671 70.1054H65.654V68.7093C65.654 68.2107 65.7538 67.8118 66.1529 67.6123C66.5165 67.3149 66.9821 67.1717 67.45 67.2134C67.6663 67.1951 67.884 67.221 68.0898 67.2896C68.2957 67.3582 68.4854 67.468 68.6474 67.6123C68.847 67.7125 69.0113 67.8713 69.1183 68.0673C69.2252 68.2633 69.2698 68.4873 69.2461 68.7093V70.1054H75.0332C75.2336 70.0905 75.4348 70.119 75.6231 70.1889C75.8115 70.2588 75.9825 70.3685 76.1246 70.5105C76.2667 70.6525 76.3764 70.8234 76.4463 71.0116C76.5163 71.1999 76.5448 71.401 76.5299 71.6012C76.5385 71.7863 76.5074 71.9711 76.4385 72.1431C76.3697 72.3151 76.2647 72.4704 76.1308 72.5985C75.8442 72.9017 75.4502 73.0806 75.0332 73.0971H59.7671C59.3501 73.0806 58.9561 72.9017 58.6696 72.5985C58.5356 72.4704 58.4307 72.3151 58.3618 72.1431C58.293 71.9711 58.2618 71.7863 58.2705 71.6012ZM74.7339 63.9226C75.0696 63.9507 75.386 64.0913 75.6319 64.3215C75.7646 64.4515 75.8701 64.6066 75.9421 64.7778C76.0141 64.9491 76.0511 65.133 76.0511 65.3187C76.0511 65.5044 76.0141 65.6883 75.9421 65.8595C75.8701 66.0308 75.7646 66.1859 75.6319 66.3159C75.5235 66.4476 75.3859 66.5522 75.23 66.6214C75.0742 66.6907 74.9043 66.7226 74.7339 66.7148H60.3658C60.1824 66.7148 60.0007 66.6787 59.8312 66.6085C59.6617 66.5384 59.5078 66.4355 59.378 66.3059C59.2483 66.1763 59.1454 66.0224 59.0752 65.853C59.005 65.6836 58.9689 65.502 58.9689 65.3187V61.0306C58.9523 60.8593 58.9803 60.6866 59.0502 60.5293C59.1202 60.3721 59.2296 60.2356 59.368 60.1331C59.654 59.9172 60.0081 59.811 60.3658 59.8339H72.3392V58.3381H60.266C60.0826 58.3381 59.9009 58.302 59.7314 58.2318C59.562 58.1617 59.408 58.0588 59.2783 57.9292C59.1485 57.7995 59.0457 57.6456 58.9755 57.4762C58.9052 57.3069 58.8691 57.1253 58.8691 56.942C58.8691 56.7586 58.9052 56.5771 58.9755 56.4077C59.0457 56.2383 59.1485 56.0844 59.2783 55.9548C59.408 55.8251 59.562 55.7223 59.7314 55.6521C59.9009 55.582 60.0826 55.5458 60.266 55.5458H74.5343C74.7195 55.5372 74.9044 55.5683 75.0765 55.6372C75.2486 55.706 75.404 55.8108 75.5321 55.9447C75.7341 56.2375 75.8388 56.5864 75.8314 56.942V61.1303C75.8401 61.3154 75.8089 61.5002 75.7401 61.6722C75.6712 61.8442 75.5663 61.9995 75.4323 62.1276C75.1864 62.3577 74.87 62.4983 74.5343 62.5265H62.5609V63.9226H74.7339Z" fill="#FFBF0B"/>
<path d="M78.1263 65.119C78.1365 64.9274 78.186 64.74 78.2719 64.5685C78.3577 64.3969 78.478 64.2448 78.6252 64.1218C78.7336 63.9901 78.8712 63.8855 79.0271 63.8163C79.1829 63.747 79.3528 63.7151 79.5232 63.7229H95.0886C95.4591 63.7229 95.8144 63.87 96.0764 64.1318C96.3384 64.3936 96.4855 64.7487 96.4855 65.119C96.4934 65.2893 96.4614 65.4591 96.3921 65.6149C96.3228 65.7707 96.2182 65.9082 96.0864 66.0165C95.9583 66.1504 95.8029 66.2553 95.6308 66.3241C95.4587 66.3929 95.2738 66.424 95.0886 66.4154H89.3015V68.011C89.3308 68.2366 89.3 68.4661 89.2125 68.6761C89.1249 68.8862 88.9835 69.0695 88.8026 69.2076C88.449 69.532 87.9854 69.7102 87.5055 69.7063C87.029 69.6924 86.5714 69.5165 86.2084 69.2076C85.89 68.8906 85.7106 68.4602 85.7095 68.011V66.4154H79.5232C79.3528 66.4232 79.1829 66.3913 79.0271 66.322C78.8712 66.2528 78.7336 66.1482 78.6252 66.0165C78.4807 65.9133 78.3609 65.7792 78.2746 65.624C78.1883 65.4687 78.1377 65.2962 78.1263 65.119ZM82.1175 62.4265C81.6352 62.4335 81.1576 62.3312 80.7206 62.1273C80.2947 61.9556 79.9177 61.6816 79.623 61.3295C79.3331 61.0035 79.0973 60.6331 78.9246 60.2326C78.7206 59.7958 78.6182 59.3185 78.6252 58.8365C78.6277 58.3554 78.7296 57.8801 78.9246 57.4403C79.0973 57.0398 79.3331 56.6695 79.623 56.3434L80.7206 55.5456C81.1576 55.3417 81.6352 55.2394 82.1175 55.2464H92.5942C93.0432 55.2509 93.4858 55.353 93.8913 55.5456L94.9889 56.3434C95.3111 56.6438 95.5515 57.0213 95.6873 57.4403C95.8823 57.8801 95.9842 58.3554 95.9866 58.8365C95.9937 59.3185 95.8913 59.7958 95.6873 60.2326C95.5515 60.6516 95.3111 61.0291 94.9889 61.3295C94.6942 61.6816 94.3172 61.9556 93.8913 62.1273C93.4858 62.3199 93.0432 62.422 92.5942 62.4265H82.1175ZM78.8248 69.0082C78.8164 68.7746 78.8668 68.5426 78.9714 68.3335C79.076 68.1244 79.2314 67.945 79.4235 67.8115C79.5854 67.6672 79.7751 67.5574 79.981 67.4888C80.1869 67.4202 80.4046 67.3943 80.6208 67.4126C81.0887 67.3709 81.5544 67.5141 81.9179 67.8115C82.0988 67.9497 82.2402 68.133 82.3278 68.3431C82.4153 68.5531 82.4461 68.7825 82.4168 69.0082V70.8032H94.7893C94.9745 70.7946 95.1594 70.8257 95.3315 70.8945C95.5036 70.9633 95.659 71.0682 95.7871 71.2021C95.9268 71.3258 96.0356 71.4803 96.1049 71.6535C96.1742 71.8266 96.202 72.0135 96.1862 72.1993C96.194 72.3696 96.162 72.5394 96.0928 72.6952C96.0235 72.851 95.9188 72.9885 95.7871 73.0968C95.664 73.244 95.5118 73.3642 95.3402 73.45C95.1685 73.5358 94.981 73.5853 94.7893 73.5955H80.521C80.104 73.579 79.71 73.4 79.4235 73.0968C79.2314 72.9634 79.076 72.7839 78.9714 72.5748C78.8668 72.3658 78.8164 72.1338 78.8248 71.9002V69.0082ZM82.2173 58.8365C82.2081 58.9445 82.221 59.0533 82.2554 59.1562C82.2897 59.259 82.3446 59.3539 82.4168 59.4348C82.5703 59.6079 82.7848 59.7151 83.0155 59.734H91.5964C91.8207 59.6958 92.0276 59.589 92.1885 59.4282C92.3494 59.2674 92.4563 59.0606 92.4944 58.8365C92.4755 58.6059 92.3683 58.3916 92.1951 58.2381C92.0953 58.0387 91.8957 58.0387 91.5964 58.0387H83.0155C82.907 58.0226 82.7963 58.0323 82.6923 58.067C82.5883 58.1016 82.4939 58.1603 82.4168 58.2381C82.3055 58.4197 82.2372 58.6244 82.2173 58.8365Z" fill="#FFBF0B"/>
<path d="M104.069 64.421C104.069 64.0508 104.216 63.6957 104.478 63.4338C104.74 63.172 105.095 63.0249 105.465 63.0249H110.554V61.1302C110.525 60.9045 110.556 60.6751 110.643 60.465C110.731 60.255 110.872 60.0717 111.053 59.9335C111.417 59.6361 111.882 59.4929 112.35 59.5346C112.566 59.5163 112.784 59.5422 112.99 59.6108C113.196 59.6794 113.386 59.7892 113.548 59.9335C113.74 60.0669 113.895 60.2464 114 60.4555C114.104 60.6646 114.155 60.8966 114.146 61.1302V63.0249H120.931C121.117 63.0091 121.304 63.0369 121.477 63.1062C121.651 63.1755 121.805 63.2842 121.929 63.4238C122.094 63.533 122.229 63.6812 122.322 63.8552C122.415 64.0292 122.464 64.2236 122.464 64.421C122.464 64.6185 122.415 64.8129 122.322 64.9869C122.229 65.1609 122.094 65.3091 121.929 65.4183C121.805 65.5579 121.651 65.6666 121.477 65.7359C121.304 65.8051 121.117 65.833 120.931 65.8172H105.465C105.095 65.8172 104.74 65.6701 104.478 65.4082C104.216 65.1464 104.069 64.7913 104.069 64.421ZM104.268 72.0997C104.26 71.9146 104.291 71.7299 104.36 71.5578C104.428 71.3858 104.533 71.2305 104.667 71.1025C104.951 70.8709 105.3 70.7317 105.665 70.7036L107.96 70.5041L109.756 69.9058L110.953 69.0083C111.241 68.711 111.417 68.3235 111.452 67.9113C111.448 67.7171 111.491 67.5249 111.578 67.3511C111.665 67.1774 111.793 67.0274 111.951 66.9141C112.305 66.5898 112.768 66.4116 113.248 66.4155C113.725 66.4294 114.182 66.6053 114.545 66.9141C114.703 67.0274 114.831 67.1774 114.918 67.3511C115.005 67.5249 115.048 67.7171 115.044 67.9113V68.1108C115.079 68.523 115.255 68.9105 115.543 69.2077C115.884 69.5517 116.292 69.823 116.74 70.0055C117.293 70.3224 117.904 70.5258 118.536 70.6039L120.732 70.8033C120.917 70.7947 121.102 70.8258 121.274 70.8946C121.446 70.9634 121.601 71.0683 121.729 71.2022C121.863 71.3303 121.968 71.4855 122.037 71.6576C122.106 71.8296 122.137 72.0144 122.128 72.1994C122.144 72.3852 122.116 72.5722 122.047 72.7453C121.978 72.9185 121.869 73.073 121.729 73.1967C121.623 73.3613 121.474 73.4944 121.299 73.5821C121.123 73.6698 120.927 73.7089 120.732 73.6953C119.165 73.7175 117.609 73.4469 116.142 72.8975C115.004 72.5815 113.992 71.9193 113.248 71.0028C112.467 71.8771 111.469 72.5306 110.355 72.8975C108.853 73.4457 107.264 73.716 105.665 73.6953C105.473 73.6851 105.286 73.6356 105.114 73.5498C104.943 73.4641 104.79 73.3438 104.667 73.1967C104.513 73.0631 104.395 72.8921 104.325 72.7001C104.255 72.5081 104.235 72.3014 104.268 72.0997ZM117.638 60.7313C117.624 60.5907 117.659 60.4494 117.738 60.3324C117.724 60.1279 117.758 59.9228 117.838 59.7341C117.838 59.5346 117.938 59.3352 117.938 59.1357V58.5374C118.01 58.3813 118.044 58.2105 118.038 58.0388H106.064C105.694 58.0388 105.338 57.8917 105.076 57.6299C104.814 57.368 104.667 57.0129 104.667 56.6426C104.667 56.2724 104.814 55.9173 105.076 55.6554C105.338 55.3936 105.694 55.2465 106.064 55.2465H120.233C120.418 55.2379 120.603 55.269 120.775 55.3378C120.947 55.4066 121.102 55.5115 121.23 55.6454C121.462 55.9293 121.601 56.2773 121.63 56.6426C121.641 56.978 121.607 57.3133 121.53 57.6399V58.8366C121.43 59.2354 121.43 59.6343 121.33 60.0332C121.23 60.4321 121.23 60.831 121.131 61.2299C121.016 61.6046 120.767 61.9241 120.432 62.1274C120.103 62.3315 119.722 62.4354 119.335 62.4266C119.112 62.4266 118.891 62.3827 118.686 62.2975C118.48 62.2123 118.293 62.0875 118.135 61.93C117.978 61.7726 117.853 61.5857 117.768 61.38C117.682 61.1744 117.638 60.9539 117.638 60.7313Z" fill="#FFBF0B"/>
<path d="M124.424 59.036C124.416 58.4895 124.517 57.947 124.723 57.4405C125.001 57.0289 125.337 56.6595 125.721 56.3435C126.131 56.0139 126.607 55.7759 127.118 55.6454C128.214 55.2494 129.414 55.2494 130.51 55.6454C130.999 55.7532 131.448 55.9949 131.807 56.3435C132.191 56.6595 132.527 57.0289 132.805 57.4405C133.01 57.947 133.112 58.4895 133.104 59.036V62.1274H134.302V56.6427C134.287 56.4381 134.321 56.2331 134.401 56.0443L134.8 55.446L135.299 55.0471H135.998C136.447 55.0482 136.878 55.2275 137.195 55.5457C137.376 55.6839 137.517 55.8672 137.605 56.0773C137.693 56.2873 137.723 56.5167 137.694 56.7424V71.9003C137.708 72.1312 137.674 72.3624 137.595 72.5797C137.516 72.797 137.393 72.9959 137.234 73.164C137.075 73.3322 136.883 73.466 136.671 73.5574C136.458 73.6488 136.229 73.6957 135.998 73.6953L135.299 73.4959L134.8 73.1967L134.401 72.5984C134.313 72.3769 134.279 72.1376 134.302 71.9003V65.1191H133.104V69.3075C133.121 69.8547 133.019 70.3991 132.805 70.9031C132.313 71.8068 131.491 72.4856 130.51 72.7978C129.414 73.1939 128.214 73.1939 127.118 72.7978L125.721 72.0997C125.313 71.7703 124.974 71.3636 124.723 70.9031C124.509 70.3991 124.407 69.8547 124.424 69.3075V59.036ZM127.816 69.3075C127.816 69.572 127.921 69.8256 128.108 70.0126C128.295 70.1997 128.549 70.3047 128.814 70.3047C129.078 70.3047 129.332 70.1997 129.519 70.0126C129.706 69.8256 129.812 69.572 129.812 69.3075V59.1357C129.824 59.0037 129.803 58.8707 129.75 58.7488C129.698 58.6269 129.616 58.52 129.512 58.4377C129.326 58.255 129.075 58.1526 128.814 58.1526C128.553 58.1526 128.302 58.255 128.115 58.4377C128.011 58.52 127.929 58.6269 127.877 58.7488C127.825 58.8707 127.804 59.0037 127.816 59.1357V69.3075ZM138.592 56.5429C138.603 56.0959 138.781 55.6691 139.091 55.3463C139.408 55.0281 139.839 54.8488 140.288 54.8477C140.765 54.8615 141.222 55.0374 141.585 55.3463C141.895 55.6691 142.073 56.0959 142.084 56.5429V72C142.099 72.2395 142.062 72.4794 141.977 72.7038C141.892 72.9282 141.76 73.1319 141.591 73.3016C141.421 73.4713 141.217 73.603 140.992 73.6881C140.768 73.7731 140.528 73.8096 140.288 73.795C139.839 73.7939 139.408 73.6146 139.091 73.2964C138.782 72.9336 138.606 72.4763 138.592 72V56.5429Z" fill="white"/>
<path d="M143.681 71.3021C143.665 71.0389 143.711 70.7756 143.815 70.5333C143.919 70.2909 144.078 70.0761 144.279 69.906C144.923 69.3485 145.492 68.7119 145.976 68.0112C146.49 67.3492 146.895 66.6083 147.173 65.8173C147.556 64.8896 147.824 63.9183 147.971 62.9253C148.096 61.766 148.163 60.6011 148.171 59.435V56.8422C148.171 56.3662 148.36 55.9096 148.697 55.573C149.034 55.2364 149.49 55.0472 149.967 55.0472C150.443 55.0472 150.9 55.2364 151.237 55.573C151.573 55.9096 151.763 56.3662 151.763 56.8422V59.435C151.771 60.6011 151.837 61.766 151.962 62.9253C152.124 63.8724 152.358 64.8058 152.661 65.7176C153.018 66.503 153.418 67.2686 153.858 68.0112L155.654 69.8062C155.758 69.8731 155.847 69.9607 155.916 70.0637C155.985 70.1667 156.031 70.2827 156.053 70.4046C156.177 70.6527 156.245 70.925 156.253 71.2024C156.217 71.644 156.043 72.0629 155.754 72.399C155.437 72.7172 155.006 72.8965 154.556 72.8976C154.126 72.8908 153.708 72.7515 153.359 72.4988C152.614 71.8443 151.945 71.1084 151.364 70.3049C150.761 69.4491 150.29 68.5079 149.967 67.5126C149.685 68.5244 149.21 69.4724 148.57 70.3049C148.017 71.1607 147.345 71.933 146.574 72.5985C146.226 72.8513 145.808 72.9906 145.377 72.9974C144.927 72.9963 144.497 72.8169 144.18 72.4988C143.891 72.1626 143.716 71.7437 143.681 71.3021ZM158.148 64.5209H155.355C154.938 64.5045 154.544 64.3255 154.257 64.0223C154.115 63.8791 154.006 63.7069 153.937 63.5175C153.868 63.3282 153.841 63.1261 153.858 62.9253C153.848 62.7251 153.878 62.5248 153.946 62.3364C154.015 62.1479 154.12 61.9752 154.257 61.8284C154.544 61.5252 154.938 61.3462 155.355 61.3298H158.148V56.6428C158.169 56.3994 158.237 56.1624 158.348 55.9447L158.747 55.3464L159.246 54.9475H160.643C160.872 55.0298 161.077 55.1668 161.242 55.3464C161.408 55.5214 161.543 55.7238 161.641 55.9447C161.723 56.1679 161.757 56.4057 161.741 56.6428V72.0001C161.77 72.2258 161.739 72.4552 161.651 72.6653C161.564 72.8753 161.423 73.0587 161.242 73.1968C161.087 73.3904 160.889 73.5452 160.664 73.6491C160.439 73.753 160.192 73.803 159.944 73.7952C159.49 73.7338 159.068 73.5249 158.743 73.2006C158.419 72.8764 158.21 72.4546 158.148 72.0001V64.5209Z" fill="white"/>
<path d="M38.1152 99.025C38.1221 98.5946 38.2614 98.1767 38.5143 97.8283C39.073 97.1244 39.5422 96.354 39.9112 95.5347C40.2365 94.6558 40.5031 93.7563 40.7095 92.8422C40.9325 91.9224 41.0991 90.99 41.2084 90.0499C41.2895 89.1882 41.3228 88.3226 41.3081 87.4571V84.6649C41.3077 84.4336 41.3547 84.2047 41.4461 83.9922C41.5375 83.7798 41.6715 83.5882 41.8397 83.4294C42.0079 83.2706 42.2069 83.1479 42.4243 83.0688C42.6418 82.9898 42.8731 82.956 43.1041 82.9696C43.3275 82.9643 43.5495 83.006 43.7558 83.0919C43.962 83.1778 44.1479 83.306 44.3015 83.4682C44.6198 83.7853 44.7993 84.2157 44.8004 84.6649V87.4571C44.7857 88.3226 44.819 89.1882 44.9002 90.0499C45.018 90.9887 45.1845 91.9207 45.399 92.8422C45.5925 93.7395 45.8941 94.6101 46.2971 95.435C46.5921 96.2693 47.0311 97.0456 47.5942 97.7286C47.8471 98.077 47.9865 98.4949 47.9933 98.9253C47.9819 99.3723 47.804 99.7991 47.4944 100.122C47.1771 100.44 46.7465 100.619 46.2971 100.621H45.5986L44.9999 100.122C44.5212 99.5082 44.1191 98.8385 43.8026 98.1275C43.4976 97.3184 43.2639 96.4842 43.1041 95.6344C42.9122 96.5198 42.6452 97.3872 42.3059 98.2272C42.0216 98.9337 41.6531 99.6033 41.2084 100.222L40.6097 100.72H39.8115C39.362 100.719 38.9314 100.54 38.6141 100.222C38.3045 99.8988 38.1266 99.4721 38.1152 99.025ZM52.9822 92.8422H51.8846V99.7231C51.9139 99.9487 51.8832 100.178 51.7956 100.388C51.708 100.598 51.5667 100.782 51.3857 100.92C51.0685 101.238 50.6378 101.417 50.1884 101.418H49.49C49.1278 101.189 48.8211 100.883 48.592 100.521C48.5101 100.298 48.4761 100.06 48.4922 99.8228V84.4654C48.4693 84.2281 48.5035 83.9888 48.592 83.7674C48.8211 83.4054 49.1278 83.0989 49.49 82.8699H50.1884C50.6215 82.8691 51.0385 83.034 51.3539 83.3306C51.6693 83.6273 51.8592 84.0333 51.8846 84.4654V89.9502H52.9822V84.3657C52.983 84.031 53.0829 83.7041 53.2694 83.426C53.4558 83.148 53.7204 82.9313 54.0299 82.8034C54.3393 82.6754 54.6797 82.6418 55.0082 82.7069C55.3367 82.772 55.6386 82.9328 55.8758 83.169C56.0567 83.3072 56.1981 83.4905 56.2856 83.7006C56.3732 83.9106 56.4039 84.14 56.3747 84.3657V99.8228C56.4039 100.048 56.3732 100.278 56.2856 100.488C56.1981 100.698 56.0567 100.881 55.8758 101.019C55.5578 101.336 55.1273 101.514 54.6784 101.514C54.2296 101.514 53.799 101.336 53.4811 101.019C53.3002 100.881 53.1588 100.698 53.0712 100.488C52.9837 100.278 52.9529 100.048 52.9822 99.8228V92.8422Z" fill="#FFBF0B"/>
<path d="M58.2705 99.324C58.2618 99.139 58.293 98.9542 58.3618 98.7822C58.4307 98.6101 58.5356 98.4549 58.6696 98.3268C58.9561 98.0236 59.3501 97.8446 59.7671 97.8282H65.654V96.5318C65.6248 96.3061 65.6555 96.0767 65.7431 95.8666C65.8306 95.6566 65.972 95.4733 66.1529 95.3351C66.5502 95.1198 66.9985 95.0164 67.45 95.0359C67.8702 95.0133 68.2874 95.1175 68.6474 95.3351C68.8394 95.4685 68.9949 95.648 69.0995 95.8571C69.2041 96.0662 69.2545 96.2982 69.2461 96.5318V97.8282H75.0332C75.4502 97.8446 75.8442 98.0236 76.1308 98.3268C76.2647 98.4549 76.3697 98.6101 76.4385 98.7822C76.5074 98.9542 76.5385 99.139 76.5299 99.324C76.5448 99.5243 76.5163 99.7254 76.4463 99.9136C76.3764 100.102 76.2667 100.273 76.1246 100.415C75.9825 100.557 75.8115 100.666 75.6231 100.736C75.4348 100.806 75.2336 100.835 75.0332 100.82H59.7671C59.5668 100.835 59.3655 100.806 59.1772 100.736C58.9889 100.666 58.8178 100.557 58.6757 100.415C58.5337 100.273 58.4239 100.102 58.354 99.9136C58.284 99.7254 58.2555 99.5243 58.2705 99.324ZM74.7339 91.7451C74.9043 91.7373 75.0742 91.7692 75.23 91.8385C75.3859 91.9077 75.5235 92.0123 75.6319 92.144C75.7646 92.274 75.8701 92.4291 75.9421 92.6004C76.0141 92.7716 76.0511 92.9555 76.0511 93.1412C76.0511 93.3269 76.0141 93.5108 75.9421 93.6821C75.8701 93.8533 75.7646 94.0084 75.6319 94.1384C75.386 94.3686 75.0696 94.5092 74.7339 94.5373H60.3658C59.9953 94.5324 59.6397 94.3903 59.368 94.1384C59.234 94.0104 59.1291 93.8551 59.0603 93.6831C58.9914 93.5111 58.9603 93.3263 58.9689 93.1412V88.8531C58.9603 88.668 58.9914 88.4833 59.0603 88.3112C59.1291 88.1392 59.234 87.984 59.368 87.8559C59.654 87.64 60.0081 87.5338 60.3658 87.5567H72.3392V86.1606H60.266C60.0744 86.1505 59.8868 86.1009 59.7152 86.0152C59.5435 85.9294 59.3914 85.8091 59.2682 85.662C59.1365 85.5537 59.0318 85.4162 58.9626 85.2604C58.8933 85.1046 58.8613 84.9348 58.8691 84.7645C58.8533 84.5787 58.8812 84.3917 58.9504 84.2186C59.0197 84.0455 59.1286 83.8909 59.2682 83.7672C59.3964 83.6334 59.5517 83.5285 59.7238 83.4597C59.896 83.3909 60.0808 83.3597 60.266 83.3684H74.5343C74.7195 83.3597 74.9044 83.3909 75.0765 83.4597C75.2486 83.5285 75.404 83.6334 75.5321 83.7672C75.7333 84.0225 75.8392 84.3399 75.8314 84.6648V88.8531C75.8472 89.0389 75.8194 89.2259 75.7501 89.399C75.6808 89.5721 75.572 89.7267 75.4323 89.8503C75.3239 89.982 75.1864 90.0866 75.0305 90.1559C74.8746 90.2251 74.7047 90.2571 74.5343 90.2492H62.5609V91.7451H74.7339Z" fill="#FFBF0B"/>
<path d="M78.1263 92.8422C78.1365 92.6506 78.186 92.4632 78.2719 92.2916C78.3577 92.1201 78.478 91.968 78.6252 91.845C78.7336 91.7133 78.8712 91.6087 79.0271 91.5395C79.1829 91.4702 79.3528 91.4382 79.5232 91.4461H95.0886C95.2721 91.4461 95.4537 91.4822 95.6232 91.5523C95.7927 91.6225 95.9467 91.7253 96.0764 91.855C96.2061 91.9846 96.309 92.1385 96.3792 92.3079C96.4494 92.4773 96.4855 92.6588 96.4855 92.8422C96.4855 93.0255 96.4494 93.2071 96.3792 93.3765C96.309 93.5458 96.2061 93.6998 96.0764 93.8294C95.9467 93.959 95.7927 94.0619 95.6232 94.132C95.4537 94.2022 95.2721 94.2383 95.0886 94.2383H89.3015V95.8339C89.3308 96.0596 89.3 96.289 89.2125 96.499C89.1249 96.7091 88.9835 96.8924 88.8026 97.0306C88.4391 97.328 87.9734 97.4711 87.5055 97.4294C87.0398 97.452 86.5808 97.3109 86.2084 97.0306C85.89 96.7135 85.7106 96.2831 85.7095 95.8339V94.2383H79.5232C79.3528 94.2461 79.1829 94.2142 79.0271 94.1449C78.8712 94.0757 78.7336 93.9711 78.6252 93.8394C78.478 93.7164 78.3577 93.5643 78.2719 93.3927C78.186 93.2212 78.1365 93.0337 78.1263 92.8422ZM82.1175 90.2494C81.6352 90.2564 81.1576 90.1541 80.7206 89.9502L79.623 89.1524C79.3331 88.8264 79.0973 88.456 78.9246 88.0555C78.7296 87.6157 78.6277 87.1404 78.6252 86.6594C78.6182 86.1774 78.7206 85.7 78.9246 85.2632C79.1198 84.8436 79.3537 84.443 79.623 84.0666L80.7206 83.2688L82.1175 83.0693H92.5942L93.8913 83.2688L94.9889 84.0666C95.2952 84.4178 95.5322 84.8238 95.6873 85.2632C95.8913 85.7 95.9937 86.1774 95.9866 86.6594C95.9842 87.1404 95.8823 87.6157 95.6873 88.0555C95.5515 88.4745 95.3111 88.852 94.9889 89.1524L93.8913 89.9502C93.4858 90.1428 93.0432 90.2449 92.5942 90.2494H82.1175ZM78.8248 96.8311C78.8063 96.5961 78.8522 96.3605 78.9577 96.1496C79.0632 95.9388 79.2242 95.7606 79.4235 95.6344C79.5854 95.4901 79.7751 95.3803 79.981 95.3117C80.1869 95.2431 80.4046 95.2172 80.6208 95.2355C81.0887 95.1938 81.5544 95.337 81.9179 95.6344C82.1073 95.7649 82.2551 95.9472 82.3435 96.1594C82.432 96.3716 82.4574 96.6048 82.4168 96.8311V98.5264H94.7893C95.1598 98.5264 95.5151 98.6735 95.7771 98.9353C96.039 99.1971 96.1862 99.5522 96.1862 99.9225C96.1862 100.293 96.039 100.648 95.7771 100.91C95.5151 101.172 95.1598 101.319 94.7893 101.319H80.521C80.104 101.302 79.71 101.123 79.4235 100.82C79.2314 100.687 79.076 100.507 78.9714 100.298C78.8668 100.089 78.8164 99.857 78.8248 99.6234V96.8311ZM82.2173 86.6594C82.2372 86.8714 82.3055 87.0761 82.4168 87.2577L83.0155 87.4571H91.5964L92.1951 87.2577C92.3683 87.1043 92.4755 86.8899 92.4944 86.6594C92.4563 86.4352 92.3494 86.2284 92.1885 86.0676C92.0276 85.9068 91.8207 85.8 91.5964 85.7619H83.0155C82.7848 85.7807 82.5703 85.8879 82.4168 86.061C82.3446 86.142 82.2897 86.2368 82.2554 86.3396C82.221 86.4425 82.2081 86.5513 82.2173 86.6594Z" fill="#FFBF0B"/>
<path d="M103.869 99.0249C103.853 98.7617 103.899 98.4984 104.003 98.256C104.107 98.0137 104.266 97.7989 104.468 97.6287C105.107 97.1045 105.677 96.5013 106.164 95.8337C106.679 95.1358 107.083 94.362 107.361 93.5401C107.71 92.6424 107.945 91.7042 108.06 90.7479C108.267 89.5625 108.367 88.361 108.359 87.1578V84.6648C108.355 84.1851 108.533 83.7218 108.858 83.3684C109.018 83.1866 109.219 83.0463 109.445 82.9595C109.671 82.8726 109.915 82.8418 110.155 82.8697C110.394 82.8566 110.633 82.8942 110.857 82.9802C111.081 83.0661 111.283 83.1984 111.452 83.3684C111.777 83.7218 111.955 84.1851 111.951 84.6648V87.1578C111.951 88.4542 112.051 89.6509 112.151 90.7479C112.324 91.6924 112.558 92.625 112.849 93.5401C113.127 94.3311 113.532 95.072 114.046 95.734C114.534 96.4016 115.104 97.0048 115.743 97.529L116.242 98.1274C116.354 98.3798 116.421 98.6497 116.441 98.9251C116.441 99.3748 116.262 99.806 115.944 100.124C115.626 100.442 115.195 100.62 114.745 100.62C114.529 100.639 114.311 100.613 114.105 100.544C113.899 100.476 113.709 100.366 113.548 100.222C112.774 99.5657 112.072 98.8303 111.452 98.0276C110.883 97.1666 110.446 96.2255 110.155 95.2354C109.831 96.2616 109.361 97.2357 108.758 98.1274C108.204 98.9522 107.531 99.6913 106.763 100.321C106.601 100.466 106.411 100.575 106.205 100.644C105.999 100.713 105.781 100.738 105.565 100.72C105.116 100.719 104.685 100.54 104.368 100.222C104.187 100.083 104.046 99.9001 103.958 99.69C103.87 99.4799 103.84 99.2505 103.869 99.0249ZM117.638 84.4653C117.622 84.1955 117.656 83.925 117.738 83.6675C117.813 83.4621 117.953 83.2869 118.137 83.1689C118.204 83.0648 118.292 82.9756 118.395 82.9069C118.498 82.8383 118.614 82.7917 118.736 82.77H120.133C120.495 82.999 120.802 83.3056 121.031 83.6675C121.143 83.92 121.21 84.1899 121.23 84.4653V89.9501H122.128C122.329 89.9396 122.529 89.9696 122.718 90.0381C122.906 90.1066 123.079 90.2123 123.226 90.349C123.368 90.4922 123.477 90.6644 123.546 90.8538C123.615 91.0431 123.642 91.2451 123.625 91.4459C123.634 91.631 123.603 91.8158 123.534 91.9878C123.465 92.1598 123.36 92.3151 123.226 92.4431C122.939 92.7463 122.545 92.9253 122.128 92.9418H121.23V99.7229C121.238 99.9706 121.188 100.217 121.084 100.442C120.98 100.667 120.825 100.865 120.632 101.019C120.315 101.338 119.884 101.517 119.434 101.518C118.954 101.522 118.491 101.344 118.137 101.019C117.955 100.86 117.815 100.658 117.728 100.433C117.641 100.207 117.61 99.9632 117.638 99.7229V84.4653Z" fill="#FFBF0B"/>
<path d="M125.721 93.4404C125.38 93.4303 125.058 93.287 124.823 93.0415C124.689 92.9134 124.584 92.7582 124.515 92.5861C124.446 92.4141 124.415 92.2293 124.423 92.0443V88.2548C124.415 88.0697 124.446 87.8849 124.515 87.7129C124.584 87.5409 124.689 87.3856 124.823 87.2576C125.058 87.012 125.38 86.8688 125.721 86.8587H131.707V85.8614H125.621C125.449 85.878 125.277 85.85 125.119 85.7801C124.962 85.7102 124.825 85.6008 124.723 85.4625C124.589 85.3345 124.484 85.1792 124.415 85.0072C124.346 84.8352 124.315 84.6504 124.324 84.4653C124.316 84.295 124.348 84.1252 124.417 83.9694C124.486 83.8136 124.591 83.6761 124.723 83.5678C124.825 83.4295 124.962 83.3201 125.119 83.2502C125.277 83.1803 125.449 83.1523 125.621 83.1689H133.902C134.239 83.1922 134.555 83.3362 134.794 83.5745C135.032 83.8128 135.176 84.1292 135.2 84.4653V88.1551C135.2 88.3384 135.163 88.52 135.093 88.6893C135.023 88.8587 134.92 89.0126 134.79 89.1423C134.661 89.2719 134.507 89.3747 134.337 89.4449C134.168 89.5151 133.986 89.5512 133.803 89.5512H127.916V90.6481H131.707C132.914 90.6141 134.115 90.4807 135.299 90.2492H135.599C135.969 90.2542 136.325 90.3963 136.596 90.6481C136.73 90.7762 136.835 90.9315 136.904 91.1035C136.973 91.2755 137.004 91.4603 136.996 91.6454C136.989 91.9679 136.884 92.2808 136.696 92.5429C136.614 92.6542 136.509 92.7471 136.389 92.8158C136.269 92.8845 136.135 92.9274 135.998 92.9418C134.552 93.2523 133.084 93.4523 131.607 93.5401H125.721V93.4404ZM126.619 101.318C126.435 101.318 126.253 101.282 126.084 101.212C125.915 101.142 125.761 101.039 125.631 100.91C125.501 100.78 125.398 100.626 125.328 100.457C125.258 100.287 125.222 100.106 125.222 99.9224V95.9335C125.222 95.7501 125.258 95.5686 125.328 95.3992C125.398 95.2298 125.501 95.0759 125.631 94.9462C125.761 94.8166 125.915 94.7138 126.084 94.6436C126.253 94.5734 126.435 94.5373 126.619 94.5373H139.69C139.875 94.5215 140.062 94.5494 140.236 94.6186C140.409 94.6879 140.564 94.7966 140.687 94.9362C140.821 95.0643 140.926 95.2196 140.995 95.3916C141.064 95.5636 141.095 95.7484 141.086 95.9335V99.9224C141.095 100.107 141.064 100.292 140.995 100.464C140.926 100.636 140.821 100.792 140.687 100.92C140.564 101.059 140.409 101.168 140.236 101.237C140.062 101.306 139.875 101.334 139.69 101.318H126.619ZM128.714 98.626H137.594V97.2299H128.714V98.626ZM137.494 84.4653C137.514 84.1899 137.582 83.92 137.694 83.6675L137.993 83.1689L138.592 82.77H139.989L140.588 83.1689C140.772 83.2869 140.912 83.4621 140.987 83.6675C141.069 83.925 141.103 84.1955 141.086 84.4653V86.7589H142.184C142.367 86.7589 142.549 86.795 142.719 86.8652C142.888 86.9354 143.042 87.0382 143.172 87.1679C143.301 87.2975 143.404 87.4514 143.475 87.6208C143.545 87.7902 143.581 87.9717 143.581 88.1551C143.581 88.3384 143.545 88.52 143.475 88.6893C143.404 88.8587 143.301 89.0126 143.172 89.1423C143.042 89.2719 142.888 89.3747 142.719 89.4449C142.549 89.5151 142.367 89.5512 142.184 89.5512H141.086V92.2437C141.073 92.72 140.897 93.1773 140.588 93.5401C140.234 93.8644 139.77 94.0426 139.29 94.0387C139.051 94.0533 138.811 94.0168 138.586 93.9318C138.362 93.8467 138.158 93.715 137.988 93.5453C137.818 93.3756 137.687 93.1719 137.601 92.9475C137.516 92.7231 137.48 92.4832 137.494 92.2437V84.4653Z" fill="#FFBF0B"/>
<path d="M40.1108 121.263C39.9256 121.272 39.7407 121.241 39.5686 121.172C39.3965 121.103 39.2411 120.998 39.113 120.864C38.8812 120.58 38.742 120.232 38.7139 119.867V112.288C38.742 111.923 38.8812 111.575 39.113 111.291C39.2411 111.157 39.3965 111.052 39.5686 110.983C39.7407 110.914 39.9256 110.883 40.1108 110.892H47.9932C48.1767 110.892 48.3583 110.928 48.5278 110.998C48.6973 111.068 48.8513 111.171 48.981 111.301C49.1107 111.43 49.2136 111.584 49.2838 111.754C49.354 111.923 49.3901 112.105 49.3901 112.288V119.867C49.3901 120.05 49.354 120.232 49.2838 120.401C49.2136 120.571 49.1107 120.725 48.981 120.854C48.8513 120.984 48.6973 121.087 48.5278 121.157C48.3583 121.227 48.1767 121.263 47.9932 121.263H40.1108ZM39.6119 123.956C39.5826 123.73 39.6133 123.501 39.7009 123.29C39.7885 123.08 39.9298 122.897 40.1108 122.759C40.4743 122.462 40.94 122.318 41.4079 122.36C41.6241 122.342 41.8418 122.368 42.0477 122.436C42.2535 122.505 42.4432 122.615 42.6052 122.759C42.7973 122.892 42.9527 123.072 43.0573 123.281C43.1619 123.49 43.2123 123.722 43.2039 123.956V126.349H54.6784C54.8636 126.34 55.0484 126.371 55.2206 126.44C55.3927 126.509 55.548 126.614 55.6762 126.748C55.8158 126.872 55.9247 127.026 55.994 127.199C56.0633 127.372 56.0911 127.559 56.0753 127.745C56.0831 127.915 56.0511 128.085 55.9818 128.241C55.9126 128.397 55.8079 128.534 55.6762 128.643C55.5531 128.79 55.4009 128.91 55.2292 128.996C55.0576 129.082 54.8701 129.131 54.6784 129.141H41.3081C40.8587 129.14 40.428 128.961 40.1108 128.643C39.9298 128.504 39.7885 128.321 39.7009 128.111C39.6133 127.901 39.5826 127.672 39.6119 127.446V123.956ZM42.2061 118.571H45.8979V113.584H42.2061V118.571ZM51.8846 112.188C51.8685 111.951 51.9025 111.713 51.9844 111.49L52.3835 110.892L52.9822 110.593L53.6806 110.393L54.3791 110.593L54.9777 110.892L55.3768 111.49C55.3768 111.69 55.4766 111.989 55.4766 112.188V115.479H56.5742C56.7594 115.471 56.9442 115.502 57.1163 115.571C57.2885 115.639 57.4438 115.744 57.572 115.878C57.8174 116.152 57.9531 116.507 57.9531 116.875C57.9531 117.243 57.8174 117.598 57.572 117.873C57.4438 118.006 57.2885 118.111 57.1163 118.18C56.9442 118.249 56.7594 118.28 56.5742 118.271H55.4766V122.659C55.4805 123.139 55.3022 123.602 54.9777 123.956C54.6263 124.285 54.1625 124.469 53.6806 124.469C53.1987 124.469 52.7349 124.285 52.3835 123.956C52.059 123.602 51.8807 123.139 51.8846 122.659V112.188Z" fill="white"/>
<path d="M60.0665 128.343C59.701 128.315 59.3528 128.176 59.0687 127.945C58.9348 127.816 58.8298 127.661 58.761 127.489C58.6921 127.317 58.661 127.132 58.6696 126.947V112.787C58.6835 112.31 58.8595 111.853 59.1685 111.49C59.5221 111.166 59.9857 110.988 60.4656 110.992H61.1641L61.663 111.391L62.0621 111.989C62.1505 112.21 62.1847 112.45 62.1619 112.687V125.252H65.8537C67.0334 125.158 68.2022 124.958 69.3459 124.654H69.8448C70.03 124.645 70.2148 124.676 70.387 124.745C70.5591 124.814 70.7144 124.919 70.8426 125.053C71.1459 125.339 71.325 125.733 71.3415 126.15C71.3422 126.319 71.3071 126.486 71.2383 126.641C71.1695 126.796 71.0686 126.934 70.9423 127.047C70.8546 127.184 70.7375 127.3 70.5994 127.386C70.4614 127.472 70.3059 127.527 70.1441 127.546C68.733 127.863 67.2979 128.064 65.8537 128.144L61.0643 128.343H60.0665ZM71.8404 112.188C71.8243 111.951 71.8583 111.713 71.9401 111.49L72.3392 110.892C72.4677 110.74 72.6432 110.634 72.8381 110.593L73.6364 110.393L74.3348 110.593C74.5297 110.634 74.7052 110.74 74.8337 110.892L75.2328 111.49C75.3437 111.708 75.4115 111.945 75.4324 112.188V117.573H76.2306C76.68 117.574 77.1107 117.754 77.4279 118.072C77.5646 118.219 77.6704 118.392 77.739 118.58C77.8075 118.768 77.8375 118.969 77.827 119.169C77.8437 119.37 77.8166 119.572 77.7477 119.761C77.6788 119.95 77.5697 120.123 77.4279 120.266C77.1107 120.584 76.68 120.763 76.2306 120.765H75.4324V127.546C75.371 128 75.162 128.422 74.8375 128.746C74.5131 129.07 74.0911 129.279 73.6364 129.341C73.3874 129.357 73.1383 129.311 72.9118 129.206C72.6852 129.102 72.4884 128.942 72.3392 128.742C72.1583 128.604 72.017 128.421 71.9294 128.211C71.8418 128.001 71.8111 127.771 71.8404 127.546V112.188Z" fill="white"/>
<path d="M86.1086 117.873C86.5581 117.874 86.9887 118.053 87.306 118.371C87.4869 118.51 87.6282 118.693 87.7158 118.903C87.8034 119.113 87.8341 119.342 87.8049 119.568V125.651H94.9889C95.1892 125.641 95.3897 125.671 95.5782 125.739C95.7668 125.808 95.9396 125.913 96.0865 126.05C96.2282 126.193 96.3373 126.365 96.4062 126.555C96.4751 126.744 96.5022 126.946 96.4856 127.147C96.4942 127.332 96.463 127.517 96.3942 127.689C96.3253 127.861 96.2204 128.016 96.0865 128.144C95.7999 128.447 95.4059 128.626 94.9889 128.643H79.7228C79.3058 128.626 78.9118 128.447 78.6253 128.144C78.478 128.021 78.3577 127.869 78.2719 127.698C78.1861 127.526 78.1365 127.339 78.1264 127.147C78.1223 126.938 78.165 126.732 78.2513 126.542C78.3376 126.352 78.4654 126.184 78.6253 126.05C78.7721 125.913 78.9449 125.808 79.1335 125.739C79.322 125.671 79.5225 125.641 79.7228 125.651H84.3126V119.568C84.2834 119.342 84.3141 119.113 84.4017 118.903C84.4892 118.693 84.6306 118.51 84.8115 118.371C85.1651 118.047 85.6287 117.869 86.1086 117.873ZM95.6873 113.485C95.7134 114.851 95.6467 116.217 95.4878 117.574C95.3868 119.18 95.1868 120.778 94.8891 122.36C94.8705 122.586 94.7971 122.804 94.6755 122.995C94.5538 123.186 94.3874 123.345 94.1907 123.457C93.9041 123.76 93.5101 123.939 93.0931 123.956C92.8474 123.95 92.6056 123.894 92.3825 123.791C92.1593 123.688 91.9597 123.541 91.796 123.357C91.626 123.189 91.4936 122.986 91.4076 122.763C91.3216 122.539 91.2839 122.3 91.2971 122.061V121.662C91.4701 120.905 91.6033 120.14 91.6962 119.369C91.8073 118.709 91.8739 118.043 91.8958 117.374C92.0007 116.781 92.0674 116.181 92.0953 115.579V114.283H80.2217C80.0365 114.291 79.8517 114.26 79.6795 114.191C79.5074 114.123 79.3521 114.018 79.2239 113.884C79.0728 113.744 78.9522 113.574 78.8698 113.385C78.7873 113.197 78.7448 112.993 78.7448 112.787C78.7448 112.581 78.7873 112.377 78.8698 112.188C78.9522 112 79.0728 111.83 79.2239 111.69C79.508 111.458 79.8562 111.319 80.2217 111.291H94.2904C94.6609 111.291 95.0162 111.438 95.2782 111.7C95.5402 111.962 95.6873 112.317 95.6873 112.687V113.485Z" fill="white"/>
<path d="M104.169 118.87C104.157 118.56 104.235 118.254 104.395 117.988C104.554 117.723 104.788 117.509 105.067 117.374C106.127 116.868 107.077 116.156 107.86 115.28C108.435 114.575 108.752 113.696 108.758 112.787V112.288C108.759 111.839 108.939 111.408 109.257 111.091C109.611 110.767 110.074 110.589 110.554 110.593C111.031 110.607 111.488 110.783 111.851 111.091C112.17 111.408 112.349 111.839 112.35 112.288V112.787C112.357 113.696 112.674 114.575 113.248 115.28C114.006 116.115 114.922 116.793 115.942 117.274C116.248 117.382 116.511 117.586 116.691 117.856C116.871 118.125 116.958 118.446 116.94 118.77C116.929 119.217 116.751 119.644 116.441 119.967C116.279 120.111 116.09 120.221 115.884 120.289C115.678 120.358 115.46 120.384 115.244 120.366H114.446L112.251 119.069C111.582 118.5 111.009 117.826 110.554 117.075C110.09 117.849 109.48 118.527 108.758 119.069C108.089 119.627 107.352 120.096 106.563 120.465H105.765C105.565 120.476 105.364 120.446 105.176 120.377C104.987 120.309 104.814 120.203 104.667 120.066C104.5 119.917 104.368 119.732 104.282 119.525C104.195 119.318 104.157 119.094 104.169 118.87ZM122.129 127.745C122.137 127.93 122.106 128.115 122.037 128.287C121.968 128.459 121.863 128.614 121.729 128.742C121.458 128.994 121.102 129.136 120.732 129.141H106.064C105.785 129.145 105.511 129.066 105.278 128.913C105.044 128.759 104.862 128.54 104.755 128.282C104.647 128.025 104.619 127.741 104.675 127.467C104.731 127.194 104.867 126.943 105.067 126.748C105.195 126.614 105.35 126.509 105.522 126.44C105.694 126.371 105.879 126.34 106.064 126.349H107.96V125.751C107.96 125.451 107.96 125.252 108.06 125.152C108.14 124.975 108.282 124.833 108.459 124.753L108.958 124.554H109.756L110.953 124.753C111.127 124.851 111.266 124.998 111.355 125.176C111.444 125.354 111.478 125.554 111.452 125.751V126.349H115.443V125.751C115.418 125.554 115.452 125.354 115.54 125.176C115.629 124.998 115.769 124.851 115.942 124.753L117.14 124.554H117.838L118.437 124.753L118.836 125.152C118.936 125.252 118.936 125.451 118.936 125.751V126.349H120.732C120.918 126.333 121.105 126.361 121.278 126.43C121.451 126.5 121.606 126.608 121.729 126.748C121.863 126.876 121.968 127.031 122.037 127.203C122.106 127.375 122.137 127.56 122.129 127.745ZM106.264 124.255C105.893 124.255 105.538 124.108 105.276 123.846C105.014 123.584 104.867 123.229 104.867 122.859C104.867 122.488 105.014 122.133 105.276 121.871C105.538 121.61 105.893 121.463 106.264 121.463H120.532C120.903 121.467 121.258 121.61 121.53 121.861C121.663 121.991 121.768 122.147 121.84 122.318C121.912 122.489 121.949 122.673 121.949 122.859C121.949 123.044 121.912 123.228 121.84 123.4C121.768 123.571 121.663 123.726 121.53 123.856C121.258 124.108 120.903 124.25 120.532 124.255H106.264ZM118.137 112.188C118.158 111.945 118.226 111.708 118.337 111.49L118.636 110.892L119.235 110.593L119.933 110.393L120.632 110.593L121.231 110.892L121.63 111.49C121.712 111.713 121.746 111.951 121.729 112.188V119.169C121.743 119.408 121.705 119.647 121.619 119.871C121.533 120.094 121.401 120.297 121.231 120.465C121.071 120.647 120.869 120.787 120.643 120.874C120.418 120.961 120.174 120.992 119.933 120.964C119.694 120.977 119.455 120.939 119.231 120.854C119.008 120.768 118.805 120.635 118.636 120.465C118.466 120.297 118.334 120.094 118.248 119.871C118.162 119.647 118.124 119.408 118.137 119.169V112.188Z" fill="white"/>
<path d="M125.721 128.343C125.38 128.333 125.058 128.19 124.823 127.945C124.689 127.816 124.584 127.661 124.515 127.489C124.446 127.317 124.415 127.132 124.423 126.947V112.587C124.415 112.402 124.446 112.217 124.515 112.045C124.584 111.873 124.689 111.718 124.823 111.59C124.925 111.452 125.062 111.342 125.219 111.272C125.376 111.202 125.549 111.174 125.721 111.191H134.002C134.368 111.219 134.716 111.358 135 111.59C135.137 111.737 135.242 111.91 135.311 112.098C135.38 112.286 135.409 112.487 135.399 112.687C135.408 112.872 135.376 113.057 135.308 113.229C135.239 113.401 135.134 113.556 135 113.684C134.877 113.831 134.725 113.952 134.553 114.037C134.381 114.123 134.194 114.173 134.002 114.183H127.916V125.352H131.807C132.922 125.267 134.026 125.067 135.1 124.753H135.499C135.7 124.737 135.902 124.764 136.091 124.833C136.281 124.902 136.453 125.011 136.596 125.152C136.733 125.299 136.839 125.472 136.907 125.66C136.976 125.849 137.006 126.049 136.995 126.249C136.989 126.572 136.884 126.885 136.696 127.147C136.496 127.4 136.214 127.576 135.898 127.645L133.803 128.044L131.607 128.244H125.721V128.343ZM137.494 112.188C137.515 111.945 137.583 111.708 137.694 111.49L137.993 110.892C138.193 110.792 138.392 110.593 138.592 110.593L139.29 110.393L139.989 110.593L140.587 110.892L140.987 111.49C141.068 111.713 141.102 111.951 141.086 112.188V117.673H142.084C142.372 117.699 142.648 117.803 142.882 117.973C143.115 118.144 143.298 118.374 143.411 118.641C143.524 118.907 143.562 119.199 143.522 119.485C143.481 119.771 143.364 120.041 143.182 120.266C143.035 120.403 142.862 120.508 142.673 120.577C142.485 120.645 142.285 120.675 142.084 120.665H141.086V127.546C141.085 127.995 140.906 128.425 140.587 128.742C140.433 128.936 140.235 129.091 140.01 129.195C139.784 129.298 139.538 129.348 139.29 129.341C139.045 129.335 138.803 129.279 138.58 129.176C138.357 129.073 138.157 128.925 137.993 128.742C137.675 128.425 137.495 127.995 137.494 127.546V112.188Z" fill="white"/>
<path d="M144.08 126.648C144.087 126.371 144.155 126.099 144.279 125.851C144.351 125.588 144.488 125.347 144.678 125.153L145.277 124.754L146.075 124.554L146.874 124.754L147.472 125.153C147.692 125.342 147.864 125.581 147.971 125.851C148.061 126.106 148.095 126.378 148.071 126.648C148.087 126.885 148.053 127.123 147.971 127.346C147.864 127.616 147.692 127.856 147.472 128.044C147.372 128.244 147.073 128.344 146.874 128.443L146.075 128.643L145.277 128.443L144.678 128.044C144.488 127.85 144.351 127.609 144.279 127.346C144.168 127.129 144.101 126.892 144.08 126.648Z" fill="white"/>
<path d="M150.066 126.648C150.074 126.371 150.142 126.099 150.266 125.851C150.377 125.606 150.51 125.372 150.665 125.153L151.364 124.754L152.162 124.554L152.86 124.754L153.559 125.153C153.749 125.347 153.887 125.588 153.958 125.851C154.082 126.099 154.15 126.371 154.157 126.648C154.136 126.892 154.069 127.129 153.958 127.346C153.887 127.609 153.749 127.85 153.559 128.044L152.86 128.443L152.162 128.643L151.364 128.443L150.665 128.044C150.51 127.825 150.377 127.591 150.266 127.346C150.155 127.129 150.087 126.892 150.066 126.648Z" fill="white"/>
<path d="M160.144 121.363C160.143 121.812 159.964 122.242 159.645 122.56C159.31 122.75 158.933 122.853 158.548 122.859C158.16 122.868 157.779 122.764 157.45 122.56C157.132 122.242 156.952 121.812 156.951 121.363L156.552 112.787C156.536 112.517 156.57 112.246 156.652 111.989C156.749 111.768 156.884 111.566 157.051 111.391L157.749 110.992H159.346L159.944 111.391L160.443 111.989C160.526 112.246 160.559 112.517 160.543 112.787L160.144 121.363ZM156.552 126.249C156.536 126.012 156.57 125.774 156.652 125.551C156.759 125.282 156.93 125.042 157.151 124.853L157.749 124.454L158.548 124.255L159.346 124.454L159.944 124.853C160.135 125.048 160.272 125.288 160.344 125.551C160.455 125.769 160.522 126.006 160.543 126.249C160.536 126.527 160.468 126.799 160.344 127.047C160.272 127.31 160.135 127.55 159.944 127.745L159.346 128.144L158.548 128.343L157.749 128.144L157.151 127.745C156.93 127.556 156.759 127.317 156.652 127.047C156.562 126.791 156.528 126.519 156.552 126.249Z" fill="white"/>
<path d="M219.712 121.363C219.877 121.363 220.011 121.095 220.011 120.765C220.011 120.434 219.877 120.166 219.712 120.166C219.546 120.166 219.412 120.434 219.412 120.765C219.412 121.095 219.546 121.363 219.712 121.363Z" fill="white"/>
<path d="M209.335 118.172C209.5 118.172 209.634 117.904 209.634 117.573C209.634 117.243 209.5 116.975 209.335 116.975C209.17 116.975 209.036 117.243 209.036 117.573C209.036 117.904 209.17 118.172 209.335 118.172Z" fill="white"/>
<path opacity="0.2" d="M221.208 118.571C221.155 118.571 221.105 118.592 221.067 118.629C221.03 118.666 221.009 118.717 221.009 118.77C220.909 118.969 221.308 119.069 221.208 119.568C221.109 120.066 221.308 120.366 221.508 120.266C221.732 119.984 221.84 119.627 221.807 119.269C221.792 119.105 221.726 118.95 221.618 118.825C221.511 118.7 221.368 118.611 221.208 118.571Z" fill="white"/>
<path opacity="0.2" d="M210.832 115.379C210.832 115.379 210.532 115.379 210.532 115.579C210.532 115.778 210.832 115.878 210.832 116.476C210.832 117.075 210.832 117.174 211.031 117.075C211.231 116.975 211.33 116.776 211.33 116.177C211.312 116.016 211.257 115.86 211.171 115.722C211.085 115.584 210.969 115.467 210.832 115.379Z" fill="white"/>
</svg>
